<?xml version="1.0" standalone="no"?>
<!DOCTYPE svg PUBLIC "-//W3C//DTD SVG 1.1//EN" "http://www.w3.org/Graphics/SVG/1.1/DTD/svg11.dtd" >
<svg xmlns="http://www.w3.org/2000/svg">
<metadata></metadata>
<defs>
<font id="bythebutterflymedium" horiz-adv-x="614" >
<font-face units-per-em="2048" ascent="1638" descent="-410" />
<missing-glyph horiz-adv-x="500" />
<glyph horiz-adv-x="2048" />
<glyph horiz-adv-x="2048" />
<glyph unicode="&#xd;" horiz-adv-x="681" />
<glyph unicode=" " />
<glyph unicode="!" horiz-adv-x="204" d="M63 371q8 43 14.5 91t11.5 107.5t7 98.5l6 114q4 76 7 107q18 348 77 518q6 14 21.5 22.5t31 2t23.5 -22t2 -31.5q-55 -158 -74 -493q-2 -29 -6 -105l-6 -116q-2 -39 -7 -100.5t-11 -112t-15 -97.5q-4 -16 -18 -25.5t-30.5 -6t-26 17.5t-7.5 31zM66 110.5q0 16.5 12 29 t28.5 12.5t28.5 -12.5t12 -29t-12 -28.5t-28.5 -12t-28.5 12t-12 28.5z" />
<glyph unicode="&#x22;" horiz-adv-x="393" d="M109 907q0 94 12 234q4 27 8 73t8 84.5t6 73.5q2 16 14.5 27.5t30 9.5t28.5 -14.5t9 -30.5q-2 -33 -6 -72l-10 -84q-4 -47 -6 -73q-12 -137 -13 -228q0 -16 -12 -28.5t-28.5 -12.5t-28.5 12.5t-12 28.5zM309 889q6 68 4 250q0 164 15 260q2 16 16 26.5t30.5 8.5t27 -17 t8.5 -31q-14 -90 -15 -247q2 -186 -4 -258q-2 -16 -14 -27.5t-29.5 -9.5t-29 14t-9.5 31z" />
<glyph unicode="#" horiz-adv-x="1040" d="M-8 514q2 16 15 27.5t30 9.5q109 -10 235 -12q8 49 17 88q25 113 69 282h-14q-168 20 -254 2q-16 -2 -30.5 7.5t-17.5 26t6.5 30.5t25.5 18q98 18 278 -2l27 -2l12 41q68 256 94 397q4 16 18.5 25.5t31 6.5t25.5 -17.5t7 -30.5q-29 -143 -98 -403l-8 -29q111 -14 160 -18 l79 -5q70 236 88 390q2 18 15.5 28t31 8t27.5 -15t8 -30q-18 -156 -84 -381q74 2 314 21q16 2 28.5 -9.5t14.5 -28.5t-9.5 -29.5t-29.5 -14.5q-256 -18 -342 -21q-57 -188 -76 -260q-8 -35 -16 -73q217 4 313 4q16 0 28.5 -12.5t12.5 -29t-12.5 -28.5t-28.5 -12 q-92 0 -330 -4q-2 -16 -7 -46t-9 -55l-10 -45q-39 -199 -90 -305q-8 -14 -23.5 -20t-31 2t-21.5 23.5t2 31.5q49 102 84 283l22 129q-33 -2 -61 -2h-168q-18 -113 -29.5 -170.5t-38 -150.5t-59.5 -163q-6 -16 -22.5 -22t-32 1t-21.5 23.5t2 30.5q31 66 54.5 151t35 140 t29.5 162q-123 2 -229 12q-16 2 -27.5 15.5t-9.5 29.5zM354 537h154q35 0 78 2q10 53 22 96q21 82 68 242q-31 0 -60 2q-49 4 -176 20q-47 -174 -69 -289q-8 -33 -17 -73z" />
<glyph unicode="$" horiz-adv-x="790" d="M51 345q0 13 1 39t1 28q0 16 12.5 27.5t30 11.5t28.5 -12.5t11 -30.5q0 -10 -1 -32t-1 -30t2 -20.5t6 -20.5q25 -51 83.5 -107.5t123.5 -88.5q72 -35 125 -29q57 8 92 65q43 72 23 201q-16 96 -80 277q-6 12 -27 69l-26 78q-8 20 -24.5 72.5t-23 77t-16.5 70.5t-12 75 t-2 63.5t6 65.5q16 80 78.5 149.5t138.5 98.5q88 37 162 6q84 -33 121 -141q14 -41 4 -119q0 -4 -8 -55q-6 -31 -7 -46q0 -16 -13 -27t-29.5 -11t-27.5 13.5t-11 29.5q0 18 6 53q8 51 8 53q8 59 0 84q-25 70 -74 90q-43 16 -100 -6q-59 -23 -107.5 -77t-58.5 -111 q-4 -20 -5 -43t-1 -43.5t5 -49t9 -48t14 -56.5l17 -53q4 -16 17.5 -57.5t19.5 -56.5t22.5 -61t20.5 -61q68 -186 84 -291q27 -158 -33 -254q-55 -92 -152 -104q-78 -10 -170 35q-78 39 -145.5 104.5t-99.5 128.5q-8 18 -12.5 41t-4.5 36zM477 -133.5q0 16.5 12.5 29t29 12.5 t28.5 -12.5t12 -29t-12 -28.5t-28.5 -12t-29 12t-12.5 28.5zM524 1546.5q0 16.5 12.5 28.5t29 12t28.5 -12t12 -28.5t-12 -29t-28.5 -12.5t-29 12.5t-12.5 29z" />
<glyph unicode="%" horiz-adv-x="1228" d="M61 1020q4 61 25 119q6 16 14 30q-8 10 -8 25q0 16 12.5 28.5t28.5 12.5q14 0 29 -2q14 6 33 4q8 0 14 -2h6q31 2 41 -27q16 -10 31 -22q47 -47 43 -121q-2 -59 -39 -115.5t-88 -75.5q-80 -29 -121 33q-27 41 -21 113zM143 1016q-4 -47 9 -64q4 -8 22 0q27 8 50.5 44 t25.5 73q0 37 -21 57q-16 15 -47 23q-10 -16 -18 -39q-18 -47 -21 -94zM184 -39q-6 16 2 31q51 117 164 297q139 223 174 282q29 53 219 430q135 268 236 426q10 14 26.5 17.5t31 -5.5t17.5 -26t-5 -31q-100 -154 -234 -417q-197 -391 -221 -435q-33 -61 -174 -286 q-113 -180 -160 -285q-6 -16 -22.5 -22.5t-32 1t-21.5 23.5zM1004 264q-2 35 6 92q8 55 22 76q8 8 49 41q12 10 29.5 8t28.5 -16q4 -6 6 -14l22 -11l33 -22q20 -14 27 -33q8 -14 2 -35q-2 -6 -6 -16q-8 -18 -23 -39q-31 -51 -63 -82q-23 -23 -43 -29q-41 -14 -68 17 q-18 20 -22 63zM1085 279q23 23 45 59q9 10 13 20q-6 4 -17 11q-12 6 -26 14q-4 -6 -8 -39q-6 -41 -7 -65z" />
<glyph unicode="&#x26;" horiz-adv-x="514" d="M35 575q2 57 80 105q35 23 88 43l-2 2q-31 6 -45 25q-41 49 8 106q33 39 92 64q39 16 82 22q41 4 90 -8t86 -45q14 -12 14 -28.5t-11 -30t-27.5 -13.5t-28.5 10q-68 59 -174 17q-12 -4 -26.5 -14.5t-22.5 -18.5l-9 -8q10 -2 17 -2q68 -14 137 -2q4 2 20 4q14 4 21 4 q18 2 33 -4q27 -12 26 -43q0 -20 -16 -35q-6 -2 -11 -5t-16 -7q-12 -2 -43 -13q-80 -23 -123 -36q-76 -27 -116 -54q-41 -25 -41 -39q0 -10 1 -17t3 -9h2q8 -6 33 -4q39 6 116 39q59 27 70 28q8 2 64 13q16 2 29.5 -8.5t16.5 -27t-7.5 -29.5t-26.5 -17q-51 -8 -53 -9 q-6 -2 -60 -24q-92 -39 -139 -45q-55 -8 -90 16q-45 29 -41 98zM102 127q12 33 27 106q16 80 29 119q6 16 20.5 24.5t30.5 2.5t24.5 -20.5t2.5 -30.5q-12 -35 -27 -111q-14 -80 -29 -119q-6 -14 -21.5 -22t-30.5 -2t-23.5 21.5t-2.5 31.5zM414 997.5q-6 16.5 2 30.5 q53 115 123 379q4 16 18 24.5t30.5 4.5t24.5 -19t4 -31q-72 -270 -127 -391q-6 -16 -22 -22t-31.5 1t-21.5 23.5zM432 725h2h-2z" />
<glyph unicode="'" horiz-adv-x="159" d="M57 1167q-10 137 2 232q2 16 16.5 26.5t31 8.5t26.5 -17t8 -31q-12 -82 -2 -212q14 -184 15 -226q0 -16 -12.5 -28.5t-29 -12.5t-28.5 12.5t-12 28.5q0 25 -15 219z" />
<glyph unicode="(" horiz-adv-x="430" d="M102.5 560q12.5 157 57.5 304.5t129 317.5q6 14 26 59l35 70q12 25 34 61.5t43.5 67t45.5 55.5q10 12 27.5 12t30 -11t12 -28.5t-12.5 -29.5q-20 -20 -38.5 -46t-36.5 -61l-29 -57l-33 -66q-23 -45 -31 -63q-80 -164 -122.5 -303.5t-54 -285.5t26.5 -290.5t126 -292.5 q4 -4 18.5 -29.5t20.5 -33.5l18 -31l21 -33q6 -10 19.5 -29.5t23.5 -29.5l20 -27l25 -26q10 -12 22.5 -22.5t14.5 -28t-9.5 -29.5t-29 -14t-29.5 10q-16 14 -32.5 30.5t-29 32t-28.5 38t-25 34.5l-26 39q-16 27 -21.5 37t-23 37.5t-19.5 33.5q-96 158 -137 314.5 t-28.5 313.5z" />
<glyph unicode=")" horiz-adv-x="231" d="M-61 -270.5q0 16.5 12 28.5q145 145 222 362.5t78 441.5t-67.5 446.5t-197.5 380.5q-12 14 -10.5 30.5t15 27.5t30 9t26.5 -14q139 -170 213 -405.5t73 -474t-84 -471t-241 -390.5q-12 -12 -28.5 -12t-28.5 12t-12 28.5z" />
<glyph unicode="*" d="M84 952.5q-6 18.5 3 36t28 23.5q41 12 178 106q-111 90 -162 123q-16 10 -21.5 28.5t6 35t30 21.5t34.5 -7q55 -35 144 -105q2 119 -7 207q-2 20 11.5 34.5t33 17t34 -11t16.5 -31.5q8 -94 6 -222q100 76 123 105q12 16 31.5 18t35 -10t17.5 -31.5t-11 -34.5 q-33 -43 -163 -141q90 -66 163 -92q18 -8 26.5 -25.5t1.5 -36t-24.5 -26.5t-35.5 -2q-78 29 -168 92q-2 -88 -2 -145q0 -20 -13.5 -34t-34 -14t-34 13.5t-13.5 34.5q0 55 2 145q-127 -86 -176 -102q-18 -6 -35.5 3t-23.5 27.5z" />
<glyph unicode="+" horiz-adv-x="1300" d="M51 1446q8 27 30.5 52.5t51.5 33.5q66 18 135 -37q53 -43 113 -133q37 -57 92 -158l12 -26q-33 117 -41 211q-12 106 13 167q29 80 112 80q16 0 16.5 -16t-16.5 -16q-59 0 -82 -60q-20 -53 -10 -153q8 -92 43 -211v8q6 106 39 179t111 130q53 35 102 31q45 -2 80 -41 q66 -72 66 -209q0 -106 -49.5 -199.5t-147.5 -134.5q6 0 12 -2q31 -4 39 -4q293 -25 424 -158q76 -80 95.5 -159.5t-19.5 -135.5q-39 -57 -120 -71.5t-191 20.5q-94 33 -146 66q-23 14 -41 30q18 -100 33 -217q0 -8 -4 -14q-4 -4 -10 -4q-8 0 -15 4q-49 51 -90 143 q-25 39 -45 82q-10 -39 -27 -75q-27 -66 -73 -138q-49 -68 -105.5 -102.5t-107.5 -26.5q-55 8 -87 62.5t-32 144.5q0 256 244 469l10 10q-66 -10 -117 -10q-68 0 -122 23.5t-85.5 60.5t-51 83t-18.5 92t11 87q16 53 57 85t99 26q96 -10 208 -133l-2 6q-53 100 -90 155 q-57 86 -106 125q-57 45 -107 31q-18 -4 -35.5 -23.5t-21.5 -37.5q-4 -16 -20.5 -12t-12.5 20zM105 1096.5q10 -52.5 34.5 -98.5t79.5 -76.5t129 -30.5q61 0 162 16l12 8q-12 74 -14 142l-12 16q-147 197 -263 209q-90 10 -120 -88q-18 -45 -8 -97.5zM244 389 q0 -82 25.5 -125t64.5 -49q41 -6 89 23.5t91 93.5q47 68 74 129q21 55 33 112q-63 143 -93 306l-6 -2q-8 -6 -20 -19q-23 -23 -27 -24q-231 -205 -231 -445zM549 1090l2 -5q43 -61 78 -131q127 14 191.5 108.5t64.5 215.5q0 125 -58 186q-27 29 -59 33q-37 2 -78 -29 q-74 -49 -102.5 -115.5t-34.5 -164.5q-4 -63 -4 -98zM653 907q68 -145 109 -325q33 -31 69 -54q49 -31 142 -61q106 -33 173.5 -20.5t98.5 57.5q31 39 14.5 109.5t-88.5 142.5q-121 127 -403 149q-8 0 -39 4q-25 4 -39 4q-23 0 -37 -6z" />
<glyph unicode="," horiz-adv-x="204" d="M0 -192.5q-4 16.5 12 20.5q49 12 80 52t39 93q8 51 -7 102.5t-50 82.5q-12 10 -2 22t22 2q43 -39 60.5 -96t9.5 -119q-10 -61 -47 -108t-97 -64q-16 -4 -20 12.5z" />
<glyph unicode="-" d="M69 566.5q3 15.5 19 13.5q90 -18 222 -12.5t225 28.5q16 4 20 -12.5t-12 -20.5q-96 -23 -231.5 -29t-231.5 13q-14 4 -11 19.5z" />
<glyph unicode="." horiz-adv-x="229" d="M74 65.5q0 26.5 19.5 46t46 19.5t46 -19.5t19.5 -46t-19.5 -46t-46 -19.5t-46 19.5t-19.5 46z" />
<glyph unicode="/" horiz-adv-x="626" d="M-8 -207q31 80 119 363q68 215 127 368l116 299q104 262 164 396q6 14 70 135q39 74 53 125q4 18 21.5 28.5t36 5t28.5 -23t4 -35.5q-16 -59 -61 -145q-57 -109 -66 -127q-59 -135 -161.5 -395.5t-118.5 -299.5q-51 -127 -123 -358q-82 -264 -119 -369q-8 -18 -25.5 -26 t-36 -1t-26.5 24.5t-2 35.5z" />
<glyph unicode="0" horiz-adv-x="815" d="M49 381q-6 209 49 381q70 219 211 416q82 113 170 163q62 37 117 29q0 14 10 25q10 12 27.5 14t30.5 -10q201 -174 163 -541q-29 -274 -163 -549q-70 -139 -166 -217q-135 -113 -281 -59q-88 33 -131 141q-33 82 -37 207zM131 385q2 -109 30.5 -182.5t84.5 -91.5 q100 -37 200 45q82 68 144 190q129 260 155 520q23 219 -51 361q-2 -2 -6 -4q-14 -8 -30.5 -2t-24.5 20q-20 43 -49 47q-25 4 -64 -16q-74 -43 -145 -144q-133 -184 -199 -391q-51 -160 -45 -352z" />
<glyph unicode="1" horiz-adv-x="370" d="M51 14q57 211 109 688q51 475 110 701q4 16 18.5 24.5t31 4t24.5 -19t4 -30.5q-59 -236 -106 -688q-49 -467 -113 -700q-4 -16 -18.5 -24.5t-31 -4.5t-24.5 18.5t-4 30.5z" />
<glyph unicode="2" horiz-adv-x="970" d="M88 53q4 72 88 142q35 31 86 59l144 188q225 299 264 357q168 242 202 366q35 137 -20 164t-193 -24q-123 -47 -255 -135.5t-173 -139.5q-10 -14 -27.5 -16t-30.5 8t-15 27.5t8 29.5q49 63 192 158q139 92 273 143q172 66 258 23q117 -55 61 -258q-37 -141 -213 -393 q-39 -57 -266 -359l-47 -63q57 20 111 32q100 25 153 15q23 -6 46.5 -15.5t41 -19.5t41 -26.5t33.5 -24.5l37 -29q23 -20 28 -26q12 -10 14.5 -26.5t-9 -30t-27.5 -15.5t-31 10q-6 4 -31 25l-34 26l-29 25q-20 14 -33 20l-28 15q-18 8 -35 10q-37 8 -119 -12 q-86 -20 -174 -60l-64 -33l-12 -14q-76 -92 -106 -121q-2 -2 -9 -10q-10 -12 -14 -16q-12 -12 -22 -19q-27 -12 -48 6q-18 12 -16 37z" />
<glyph unicode="3" horiz-adv-x="954" d="M88 227.5q6 16.5 21.5 23.5t32 1t22.5 -21q39 -84 135 -84t221 74q123 72 219 176q94 106 111 191q6 31 4 92q-2 59 -8 96q-23 135 -101 148q-72 10 -190 -70q-35 -23 -72 -51l-47 -68q-96 -131 -137 -170q-2 -2 -6 -8q-8 -10 -12 -14q-12 -10 -23 -17q-25 -10 -45 4 q-16 14 -16 37q0 29 30 78q27 41 70 90q59 66 127 123q84 121 147 223q70 113 99 185q14 35 18 59l-16 -4q-123 -14 -283 -127q-162 -117 -199 -223q-6 -16 -20 -24.5t-30.5 -2.5t-24.5 20.5t-2 30.5q45 133 229 267q176 125 322 141q2 0 8 2q12 2 16 4q39 8 62 -16 q27 -27 20 -78q-4 -33 -25 -82q-33 -76 -104 -193l-39 -65q86 39 156 29q137 -20 170 -216q6 -39 8 -105.5t-4 -111.5q-25 -106 -131.5 -225t-237.5 -196q-145 -84 -264 -84q-147 0 -209 129q-8 16 -2 32.5z" />
<glyph unicode="4" horiz-adv-x="905" d="M127 483q4 14 14 27q10 10 29 18q2 0 9 3.5t9 3.5l7 2q33 25 73 69q66 70 162 203q225 311 311 451l31 55q18 35 25 45l4 43q2 16 15 27.5t30 9.5h2q10 10 18 20q10 12 27.5 14.5t30 -9t14.5 -29t-10 -29.5q-27 -31 -51 -74q-35 -367 -58 -760q86 -6 148 -6 q16 0 28.5 -12t12.5 -28.5t-12.5 -29t-28.5 -12.5q-61 0 -152 7q-12 -205 -20 -422q0 -16 -13.5 -27.5t-30 -11.5t-27.5 13t-11 30q8 217 20 424l-18 2q-152 12 -244 8q-53 -2 -174 -43q-12 -4 -28.5 -10t-30 -10.5t-21.5 -6.5q-18 -6 -29 -8q-8 -2 -16 -2q-25 0 -37 23 q-10 14 -8 32zM344 565q76 23 123 25q94 4 254 -8l16 -2q18 303 43 587q-76 -119 -284 -407q-92 -127 -152 -195z" />
<glyph unicode="5" horiz-adv-x="1036" d="M76 376.5q6 16.5 21.5 24t31.5 1t23 -22.5q6 -10 14 -29.5t12 -27.5l10 -23q8 -12 14.5 -19.5t16.5 -17.5t23 -20q76 -57 193.5 -62.5t234.5 41.5q121 47 206 130t101 184q20 111 -22 213t-121.5 170.5t-186.5 101.5q-109 33 -215 12q-111 -20 -182 -80q-4 -4 -21 -26 q-25 -29 -49 -39q-25 -8 -45 4q-23 16 -18 45q2 14 12 37q10 18 35 55q23 35 39 47q51 43 147 84q8 2 62.5 24.5t81.5 35.5q43 20 153 86q100 59 162 86q16 8 31.5 1.5t22.5 -22.5t1 -31.5t-22 -21.5q-57 -25 -152 -82q-111 -66 -160 -90l-53 -25q117 8 232.5 -36 t199.5 -123.5t127 -196.5t23 -242q-23 -127 -123 -226t-236 -153q-125 -51 -268 -46t-239 79q-20 16 -36 31.5t-29 36t-18.5 30t-17.5 38t-14 34.5q-8 14 -2 30.5z" />
<glyph unicode="6" horiz-adv-x="972" d="M109 646q43 183 144 340t250.5 276.5t317.5 175.5q16 6 30.5 -2.5t21 -24.5t-2 -30.5t-24.5 -20.5q-156 -51 -294 -163t-230.5 -256t-133.5 -311t0 -331q18 -78 65.5 -145.5t111.5 -100.5q152 -84 299 21q66 45 115.5 117.5t74.5 154.5q49 172 -35 260q-100 102 -366 25 q-119 -35 -197 -111q-12 -10 -29.5 -10t-29 12.5t-11.5 29.5t13 30q92 86 229 127q313 92 451 -47q59 -59 71.5 -155.5t-18.5 -182.5q-27 -94 -86 -181q-57 -82 -135 -137q-193 -133 -387 -26q-80 45 -136.5 126.5t-76.5 172.5q-45 184 -2 367z" />
<glyph unicode="7" horiz-adv-x="1036" d="M64.5 1282q-1.5 16 10 28.5t27.5 14.5q41 2 115 0q80 -2 111 0q23 0 139 14q166 20 219 25q133 12 213 10q51 0 82 -8q47 -10 66 -37q14 -23 6 -55q-6 -18 -21 -43q-20 -37 -61 -92q-39 -49 -115 -138q-117 -135 -172 -208q-70 -92 -142.5 -207t-119.5 -235t-68 -247 q-4 -18 -17 -27t-30.5 -6t-27 16t-7.5 30q25 137 74 265t125 248t147.5 213t176.5 212q74 86 110 135q39 49 56 82q6 6 8 14h-6q-23 6 -66 6q-74 2 -203 -10q-76 -6 -219 -22q-117 -16 -143 -17q-37 -2 -115 0q-74 2 -111 0q-16 0 -28 11.5t-13.5 27.5z" />
<glyph unicode="8" horiz-adv-x="837" d="M78 254q23 94 101.5 198.5t205.5 233.5l-2 2q-129 139 -168 203q-76 125 -33 235q68 168 200 253t261 69q137 -20 182 -143q21 -53 17 -121q16 4 30.5 -4.5t18.5 -24.5t-4 -31q-14 -27 -35 -55l-39 -51q-16 -23 -47 -57l-47 -54q-16 -18 -56 -58t-52.5 -53.5t-59.5 -58.5 l-53 -53q98 -109 146 -211t20 -217q-23 -100 -123.5 -169t-210.5 -83q-125 -16 -197 41q-86 70 -55 209zM160 238q-20 -92 24 -129q45 -35 133 -25q94 12 173 66.5t96 121.5q18 90 -21 173.5t-125 181.5q-121 -125 -192.5 -218.5t-87.5 -170.5zM260 1098q-31 -74 25 -164 q35 -57 157 -189q205 203 267 275q2 2 2 4q74 158 39 252q-29 78 -119 90q-96 14 -206 -56.5t-165 -211.5z" />
<glyph unicode="9" horiz-adv-x="819" d="M121 571q-33 111 8 308q43 193 129 354q100 184 217 237q150 70 281 -90q53 -68 75.5 -141.5t19.5 -141t-7 -147.5q-2 -18 -14.5 -29.5t-28.5 -9.5q-29 2 -37 27q-20 -162 -25 -190q-23 -111 -65.5 -353.5t-69.5 -369.5q-4 -16 -18.5 -25.5t-30.5 -6.5t-25.5 17.5 t-7.5 30.5q27 121 67 345.5t50 285.5q-88 -143 -178 -205q-59 -43 -130 -46t-129.5 37t-80.5 113zM199 596q20 -70 85.5 -88.5t131.5 24.5q98 70 194 252q27 50 74 179q18 139 47 202q2 4 2 6q8 14 27 19v2q-16 72 -70 135q-88 111 -182 70q-92 -41 -178 -203 q-82 -154 -119 -332q-39 -178 -12 -266z" />
<glyph unicode=":" horiz-adv-x="194" d="M66 919.5q0 26.5 19 46t46 19.5t46.5 -19.5t19.5 -46t-19.5 -46t-46.5 -19.5t-46 19.5t-19 46zM74 106.5q0 26.5 19.5 46t46 19.5t46 -19.5t19.5 -46t-19.5 -46t-46 -19.5t-46 19.5t-19.5 46z" />
<glyph unicode=";" horiz-adv-x="286" d="M12 -205.5q0 27.5 21 45.5q68 66 78 121q8 53 -41 127q-16 23 -11.5 49.5t27.5 42t49.5 10.5t40.5 -28q80 -117 64 -223q-16 -96 -117 -193q-18 -18 -46 -18t-46.5 19.5t-18.5 47zM82 919.5q0 26.5 19.5 46t46 19.5t46 -19.5t19.5 -46t-19.5 -46t-46 -19.5t-46 19.5 t-19.5 46z" />
<glyph unicode="&#x3c;" horiz-adv-x="956" d="M91 503.5q3 18.5 18 31.5q12 8 30 12q8 2 15.5 3t9.5 2t4 1q43 20 108 57l113 62q90 47 296 145t314 156q14 8 31 3t25 -20.5t2.5 -32t-21.5 -24.5q-106 -57 -313 -155.5t-297 -145.5q-20 -10 -109 -59q-39 -23 -69 -37q49 -20 117 -64q96 -59 118 -71 q100 -53 286.5 -140.5t254.5 -122.5q14 -8 20.5 -24.5t-2 -30.5t-25 -20t-30.5 2q-68 35 -255 123t-286 139q-27 14 -124 76q-72 43 -117 61q-4 2 -37 6q-47 4 -68 33q-12 16 -9 34.5z" />
<glyph unicode="=" horiz-adv-x="1048" d="M16 730.5q0 17.5 11.5 29.5t27.5 12q49 2 106.5 -1t97.5 -7t103.5 -11.5t96.5 -9.5q41 -4 270 -12q174 -6 279 -24q18 -4 27 -17.5t6 -31t-16 -26.5t-30 -7q-100 18 -268 24q-240 8 -276 13l-99 10q-63 8 -101 11t-92.5 6t-99.5 1q-18 0 -30.5 11.5t-12.5 29zM94 302 q0 17 12.5 28.5t30.5 11.5q61 -2 261 -4t335 -10q131 -6 260 -21q18 -2 28.5 -15t8.5 -30.5t-15.5 -28t-29.5 -8.5q-133 16 -260 23q-133 6 -328.5 8t-263.5 4q-16 0 -27.5 12.5t-11.5 29.5z" />
<glyph unicode="&#x3e;" horiz-adv-x="933" d="M35 970.5q4 16.5 18.5 24.5t30.5 4q111 -27 229 -81q121 -57 258.5 -132t208.5 -108q6 -2 53.5 -21.5t77.5 -33.5q49 -20 76 -35q18 -10 27 -19q8 -6 14 -12q16 -18 8 -41q-6 -18 -28 -35q-12 -10 -33 -20l-88 -37l-88 -33q-45 -14 -51 -18q-68 -33 -297 -170 q-188 -113 -310 -164q-16 -6 -31.5 1t-22.5 22.5t0 31t22 23.5q104 43 299 157q217 129 303 172q12 6 59 23l88 33q41 14 66 26l-45 21l-78 33q-47 18 -53 22q-84 37 -218.5 110.5t-247 127t-219.5 80.5q-16 4 -24 18t-4 30.5z" />
<glyph unicode="?" horiz-adv-x="755" d="M62 1079.5q-4 16.5 4 30.5q106 176 266 258q117 59 254 64q84 0 135 -31q68 -43 67 -129q0 -117 -83 -264q-23 -41 -70 -117q-49 -74 -68 -107q-127 -225 -147 -438q-2 -16 -15.5 -27.5t-30 -9.5t-27.5 15.5t-9 29.5q23 229 160 471q18 35 67 111q49 78 70 113 q72 129 72 223q0 41 -29 59q-31 18 -90 19q-117 -4 -219 -56q-139 -70 -234 -225q-8 -14 -24.5 -18t-30.5 4t-18 24.5zM342 82v57q0 16 12.5 28.5t28.5 12.5t28.5 -12.5t12.5 -28.5v-57q0 -16 -12.5 -28.5t-28.5 -12.5t-28.5 12.5t-12.5 28.5z" />
<glyph unicode="@" horiz-adv-x="1300" d="M94 420q-80 213 4 438q94 254 313.5 425t481.5 161q123 -6 227.5 -60.5t163.5 -160.5q33 -63 35 -177t-25 -219q-27 -121 -75 -204q-57 -102 -134 -131q-135 -49 -213 43q-27 30 -41 77q-61 -94 -135 -153q-131 -109 -252 -68q-100 33 -118 172q-16 117 30 248 q51 141 160 226t258 50q106 -23 133 -133q10 -43 11 -166q0 -25 -23 -36v-11v-10q0 -96 40 -144t122 -18q47 16 90 93q43 74 67 184q25 106 23 198q-2 94 -27 138q-45 86 -131 131q-84 45 -190 49q-231 10 -428 -144.5t-285 -388.5q-74 -197 -4 -380q57 -154 174 -224 q119 -70 272 -63q145 6 291 74.5t246 175.5q12 12 29.5 12t30 -11.5t12.5 -28.5t-10 -30q-113 -117 -274 -191.5t-322 -82.5q-176 -6 -317.5 77t-209.5 263zM406 573q14 -88 63 -104q80 -27 176 53q80 66 141 172q19 33 27 70v29q0 23 2 36q4 27 12 39q2 6 7 11h2 q-2 33 -9 55q-14 61 -69 76q-111 25 -196 -41t-128 -185q-41 -113 -28 -211z" />
<glyph unicode="A" horiz-adv-x="1228" d="M84 659q27 182 104 357q76 172 174 272q109 109 207 146q50 20 96.5 20t88.5 -20q117 -53 149 -238l2 2q20 4 37 -10q8 -6 12 -19l2 -14q0 -4 -2 -10q0 -6 -4 -25l-57 -229q-23 -100 -31 -133q-6 -29 -26 -131q-11 -79 -11 -149q0 -109 27 -197q16 -53 60 -107t94 -78 q35 -17 65 -17q12 0 23 3q43 12 73 76q8 14 23.5 20t31 -2t21.5 -24q3 -7 3 -13q0 -9 -5 -18q-45 -94 -125 -117q-24 -7 -48 -7q-48 0 -99 26q-66 35 -120 99t-75 134q-10 28 -16 61v-6q-111 -303 -334 -311h-43q-20 0 -43 7t-47 22q-141 88 -189 258q-29 106 -29 223 q0 72 11 149zM166 647q-11 -75 -11 -143q0 -100 24 -188q40 -146 157 -218q26 -16 73 -16h11q168 6 260 258q37 102 76 307q16 109 59 277q14 66 27 108v6q-8 11 -8 25q0 123 -32 197q-32 76 -83 100q-24 11 -53 11q-34 1 -75 -15q-77 -28 -171 -125q-86 -88 -158 -250 t-96 -334z" />
<glyph unicode="B" horiz-adv-x="1228" d="M60 1232q2 18 16 28q80 61 196 118q80 39 136 52q19 3 36 3q58 0 86 -38q16 -25 23 -62q76 59 156 88q63 22 119 22q102 0 178 -75q39 -38 55 -96q10 -35 9 -70q0 -21 -3 -41q-37 -166 -258 -338q26 4 50.5 4t47.5 -4q94 -18 164 -110q66 -88 66 -192q0 -25 -4 -52 q-12 -82 -56 -158q170 -121 201 -305v-5q0 -13 -8 -25q-10 -14 -26 -16q-4 -1 -8 -1q-12 0 -22 8q-14 10 -18 27q-25 145 -164 248q-84 -106 -216 -176t-267 -91q-79 -12 -135 -12q-21 0 -39 2q-143 10 -170 105q-4 16 -6 30l-58 -114q-8 -16 -24.5 -21.5t-31.5 2.5 t-20.5 24.5t3.5 31.5q211 401 342 940q2 10 12 48t20.5 80t16.5 78q4 16 6 29q-18 27 0 51l6 6q2 16 2 31q2 45 -8 60q-6 8 -41 2q-45 -8 -115 -41q-111 -55 -184 -113q-12 -10 -29.5 -8t-27.5 15q-8 10 -9 24q1 4 1 7zM283 94q12 -41 98 -47q13 -1 27 -1q52 0 129 11 q121 16 236.5 78t189.5 152q-135 70 -275 70q-44 0 -88 -7q-117 -18 -223 -90q-98 -66 -98 -136q0 -15 4 -30zM283 291q23 20 49 37q121 82 256 104q42 6 86 6q61 0 126 -12q112 -20 208 -72q33 61 43 127q3 21 3 41q0 76 -48 142q-49 68 -115 79q-15 3 -31 3 q-43 0 -100 -19q-31 -12 -152 -70q-102 -49 -157 -61q-6 -2 -10.5 -3t-10.5 1q-10 0 -20 8q-8 4 -13 12q-51 -170 -114 -323zM416 674q8 4 24 14l68 35l51 27l21 10q8 4 71 49l88 63q25 20 78 64.5t79 76t53.5 77t35.5 88.5q3 15 3 30q0 22 -6 42q-11 36 -34 61 q-50 50 -121 50q-42 0 -92 -18q-102 -35 -184 -122q-4 -31 -10 -66q-8 -39 -19 -82l-20 -82q-10 -39 -15 -49q-32 -139 -71 -268z" />
<glyph unicode="C" horiz-adv-x="1265" d="M82 520q-10 83 -10 157q0 129 30 230q37 127 146 256q109 131 241 209q131 74 249 74q19 0 38 -2q160 -14 262 -166q14 -20 26.5 -50t19 -50.5t13.5 -54t9 -42.5q4 -16 -4 -30.5t-24.5 -18.5t-31 4.5t-18.5 24.5l-12 47q-8 31 -12.5 48.5t-12.5 39t-18 37.5 q-84 119 -205 131q-13 1 -27 1q-99 0 -211 -65q-121 -70 -219 -186q-98 -119 -131 -231q-25 -86 -26 -202q0 -71 10 -153q12 -115 76 -223q66 -109 159 -180q100 -75 210 -91q25 -4 51 -3q87 0 180 43q31 14 94 65t96 84q162 162 174 359q2 18 14.5 28.5t30 9t27.5 -13.5 t10 -28q-14 -227 -199 -412q-39 -37 -104 -92q-68 -53 -106 -74q-93 -45 -189 -49h-23q-83 1 -156 25q-83 28 -159 83q-109 82 -180.5 205t-87.5 256z" />
<glyph unicode="D" horiz-adv-x="1357" d="M41 1338q-1 6 -1 10q0 10 5 20q8 14 25 18q53 16 102 27v6q2 15 16 27q12 10 24 10h5q27 -2 35 -26q91 16 175 15q114 0 216 -28q131 -37 256 -119q129 -82 225 -196q102 -124 152 -264q35 -98 36 -195q0 -43 -7 -86q-29 -166 -207 -342q-43 -45 -80 -72q92 -82 156 -153 q10 -12 10 -28.5t-13.5 -28t-30 -11.5t-28.5 15q-66 73 -166 161q-45 -25 -123 -53q-85 -29 -195 -41q-55 -6 -112.5 -6t-118.5 6q-82 12 -147 41q-4 -39 -14 -74q-4 -16 -18.5 -24t-31 -4t-24.5 18t-4 31q10 47 16 100q-86 68 -100 178q-2 19 -2 37q0 120 104 187 q-2 74 -7 202.5t-8 215.5t-3 203t6 212q-35 -8 -74 -18q-16 -4 -30.5 4.5t-18.5 24.5zM156 283q4 -41 22 -74q1 17 1 44v31q-1 50 -1 72v29q-24 -33 -24 -76q0 -13 2 -26zM239 1139v-55q0 -79 2 -140q3 -82 9 -215t8 -201q39 9 78 10l94 -14q211 -59 524 -325q37 27 86 73 q160 158 183 297q7 41 7 81q0 201 -169 399q-90 104 -207 180q-117 78 -231 110q-90 24 -193 24q-87 0 -182 -17q-8 -94 -9 -207zM258 133q59 -35 150 -47q56 -6 108 -6t102 6q100 10 177 37q55 19 84 33q-287 238 -469 290q-36 11 -70 11q-41 0 -80 -15v-86q0 -205 -2 -223 z" />
<glyph unicode="E" horiz-adv-x="1165" d="M47 162q-7 23 -7 51q0 85 66 215q74 150 207 307l13 17q-43 31 -58 90q-6 27 -6 55q0 81 50 166q67 115 184 209q112 90 238 137q78 29 144 29q41 0 78 -11q16 -4 25.5 -19t4.5 -30.5t-20.5 -24.5t-29.5 -3q-24 7 -52 7q-56 0 -128 -27q-108 -40 -209 -122 q-105 -84 -159 -179q-42 -73 -42 -136q0 -18 4 -35q6 -29 27 -41l4 -4q102 109 197 174q122 88 210 88q23 0 43 -6q61 -18 60 -74q-2 -37 -39 -77q-63 -70 -184 -130q-129 -66 -230 -67q-14 0 -28 2l-33 -41q-127 -150 -199 -291q-57 -113 -57 -176q0 -16 4 -29 q25 -82 129 -106q47 -12 96.5 -12t100.5 12q238 59 422 249.5t245 430.5q4 16 18.5 24.5t31 4t24.5 -18.5q5 -9 5 -20q0 -5 -1 -11q-66 -260 -264 -467q-201 -207 -461 -270q-64 -16 -125 -16q-57 0 -113 14q-150 37 -186 162zM494 811q66 12 139 49q106 53 158 111 q10 12 14 20q-10 3 -21 3q-59 0 -159 -72q-66 -47 -131 -111z" />
<glyph unicode="F" horiz-adv-x="1093" d="M74 52q6 16 21.5 23t31.5 1q88 -32 160 -32q116 0 190 83q49 53 85 134t79 208q-2 0 -242 35q-16 2 -26.5 16.5t-8 30.5t16.5 26.5t31 8.5q33 -6 90 -15.5t95 -14.5t71 -7q88 254 192 485q2 8 17 35l38 82l43 84l58 117q-29 -6 -76 -19q-41 -10 -103.5 -27.5t-70.5 -19.5 q-199 -50 -360 -50q-116 0 -213 26q-16 4 -24.5 18t-4.5 30.5t18.5 24.5t30.5 4q86 -21 190 -21q152 0 342 46q8 2 72 20l103 29q68 16 104 25q25 4 41 4q5 1 9.5 1t8.5 -1q25 -4 35 -25q4 -8 4 -16v-6q0 -4 -1 -7.5t-3 -7.5q-2 -6 -6 -14q-6 -16 -18 -43l-62 -125l-43 -84 l-37 -78q-14 -29 -18 -35q-96 -217 -178 -450q113 16 225 115q12 12 29.5 10t29 -14.5t9.5 -30t-15 -27.5q-147 -129 -307 -137q-33 -96 -52.5 -148.5t-57 -126t-78.5 -118.5q-100 -113 -251 -113q-87 0 -190 37q-16 6 -23 22q-4 8 -4 16t3 16z" />
<glyph unicode="G" horiz-adv-x="1228" d="M84 547q-7 73 -7 141q0 342 179 569q61 78 146 137.5t173 80.5q44 11 85 11q57 0 110 -22q92 -37 154 -143q12 -20 22 -50t15.5 -52.5t11.5 -55.5l8 -41q4 -18 -4 -32.5t-25.5 -17.5t-32 5t-17.5 25.5t-9 48.5t-10 49.5t-12.5 41t-16.5 38.5q-71 124 -191 124 q-32 0 -67 -9q-76 -16 -150 -68q-74 -53 -124 -119q-163 -207 -163 -519q0 -65 7 -134q16 -162 90 -286t178 -179q72 -31 144 -34h9q69 0 150 43q86 46 166 141q137 164 152 368h-15q-51 0 -77.5 -1t-64.5 -13t-73 -39q-12 -10 -29.5 -8t-27.5 15t-8 31t16 28q45 35 97.5 51 t83 17t85.5 1q26 -1 45.5 -1t33.5 1q28 2 71 14.5t82 38.5q12 10 29.5 7.5t26.5 -16.5q7 -10 7 -22q0 -4 -1 -8q-3 -18 -17 -26q-82 -59 -182 -68v-4q-14 -233 -172 -420q-88 -106 -189 -160q-98 -53 -189 -53h-7q-93 2 -183 45q-127 66 -211 207.5t-102 321.5z" />
<glyph unicode="H" horiz-adv-x="960" d="M48 1260q-1 4 -1 8q0 12 7 22q9 14 26 19l33 4l22 2q8 2 19 6l4 4l22 18l62 50q41 31 67 45q20 10 35 14q8 2 15 2q21 0 36 -14q16 -14 21 -45q2 -16 0 -41q0 -39 -8 -103q0 -8 -21 -149q-18 -129 -31 -285q43 2 133.5 3t155 5t121.5 17l16 127q10 72 45 219 q31 139 41 213q2 16 16.5 26.5t31 8.5t26.5 -16.5t8 -30.5q-10 -72 -43 -220q-33 -145 -43 -213q-8 -45 -12 -94q23 8 47 19q14 6 30.5 -1.5t22.5 -22.5q3 -7 3 -14t-4 -17q-7 -16 -23 -23q-41 -16 -84 -27q-9 -114 -9 -238q0 -244 35 -528q2 -16 -8 -29.5t-28 -15.5h-5 q-14 1 -25 9q-13 10 -16 28q-35 289 -35 539q0 113 7 217q-61 -10 -129 -14.5t-156 -5.5t-125 -3q-2 -43 -10 -174q-20 -369 -45 -547q-2 -16 -15.5 -26.5t-31 -8t-27.5 15.5t-8 32q23 162 45 540q6 104 10 166q-29 6 -30 35q-2 16 9 29.5t27 15.5q12 170 31 301 q20 139 23 148q6 59 6 94v2l-43 -31l-60 -47l-22 -18q-14 -10 -23 -15q-12 -6 -30.5 -10t-38 -6t-21.5 -4q-16 -2 -30.5 7.5t-17.5 25.5z" />
<glyph unicode="I" horiz-adv-x="602" d="M96 422q-4 46 -4 85q0 48 6 83q-4 7 -4 15q0 5 2 11q8 35 43 31q8 0 15 -2l12 -4q63 -16 145 -18q-3 61 -3 119q0 180 28 339q23 119 41 191q20 72 41 117q12 27 26 45q20 27 48 30q9 2 17 2q26 0 44 -24q14 -18 22 -49q10 -45 15 -125q2 -20 2 -221q0 -262 -35 -537 q-23 -182 -59 -301q-8 -25 -13 -39q33 -78 76 -133q10 -12 8 -29.5t-15 -27.5q-11 -9 -25 -9h-5q-18 2 -28 17q-31 39 -56 88q-27 -43 -59 -64q-34 -21 -68 -21l-26 3q-41 8 -74 49q-51 57 -84 182q-25 94 -33 197zM176 555q-3 -30 -3 -61q0 -116 36 -248q27 -106 65 -150 q16 -18 31 -22q3 -1 6 -1q10 0 25 9q33 18 61 88q-55 145 -78 352l-2 19q-78 2 -141 14zM393 621h19q16 0 28.5 -12.5t12.5 -29t-12.5 -28.5t-28.5 -12h-11v-9q12 -119 39 -221q20 90 37 213q33 260 33 525v217q-4 66 -12 102q-4 -6 -6 -12q-18 -39 -35 -105 q-16 -63 -39 -184q-28 -155 -28 -329q0 -56 3 -115z" />
<glyph unicode="J" horiz-adv-x="948" d="M53 762q-2 6 -2 12q0 15 10 31q6 12 19 24q20 20 61 50q59 43 185 120l209 129q111 70 151 101q90 70 135 112q37 82 92 129q4 4 9 7q11 7 23 7l9 -1q35 -8 33 -45q-2 -6 -4 -15q-4 -8 -16 -28q-20 -33 -39 -55.5t-39 -45.5q-31 -68 -51 -170q-14 -72 -27 -182l-20 -164 l-5 -28q31 4 45 8q16 6 32 -2t20 -25q2 -8 2 -14q80 25 114 39q14 6 31 -1t23 -23q3 -6 3 -13q0 -9 -4 -19q-8 -16 -24 -22l-250 -80l-22 -8q-49 -233 -133 -389q-74 -135 -181 -207q-62 -40 -118 -40q-10 0 -19 1q-78 8 -131 92q-51 83 -51 160q0 73 45 141q70 106 256 199 q109 53 262 106v6q-78 -5 -161 -5q-42 0 -85 1q-150 4 -241 21q-55 10 -88 26q-47 23 -58 60zM131 762l2 4q-2 -2 -2 -4zM145 776q25 -10 70 -20q86 -16 227 -19q44 -1 88 -1q87 0 170 5l9 50l20 161q14 117 29 189q6 25 10 49l-33 -27q-43 -33 -157 -104l-209 -129 q-123 -78 -181 -119q-29 -21 -43 -35zM236 303q-30 -45 -30 -94q0 -56 38 -117q33 -53 71 -57h8q32 0 74 28q88 59 152 179q72 129 117 317q-119 -43 -207 -86q-164 -82 -223 -170z" />
<glyph unicode="K" horiz-adv-x="819" d="M66 559l4 12q2 4 4 7q6 6 18 22l45 53l27 27l35 41l45 207q4 12 26 92q18 74 33 135q18 82 23 131q2 18 2 33q-18 -12 -41 -33q-70 -59 -99 -98q-10 -14 -27.5 -16.5t-30.5 8t-15 28t8 29.5q35 45 110 111q39 35 68 51q20 12 35 14q8 2 16 2q26 0 41 -22q17 -26 17 -77 q0 -18 -2 -38q-4 -55 -25 -141q-12 -55 -33.5 -134t-23.5 -92l-13 -53q25 31 109 129l125 148q39 49 94 131t90 153q7 15 23 21q7 3 14 2l18 -4q16 -8 21.5 -23.5t-2.5 -32.5q-37 -78 -98.5 -167t-108.5 -146l-127 -151q10 4 23 8q53 20 98 20.5t82 -20.5q70 -39 104 -152 q31 -94 41 -260q12 -195 12 -516q0 -16 -12 -28.5t-28.5 -12.5t-28.5 12.5t-12 28.5q0 322 -13 512q-10 154 -37 240q-27 82 -67 104q-18 11 -43 11q-29 0 -68 -15q-84 -33 -211 -133q-14 -12 -30 -29l-7 -8q-92 -414 -102 -651q0 -16 -13.5 -27.5t-29.5 -11.5t-27.5 13 t-11.5 30q8 211 72 516l-23 -23q-2 -4 -4 -5t-4 -3q-6 -4 -14 -6q-25 -6 -41 12q-11 11 -11 26q0 4 1 9z" />
<glyph unicode="L" horiz-adv-x="819" d="M31 82q-20 38 -19.5 80.5t19.5 89.5q33 76 108 151q80 80 174 129q4 18 6 29q4 12 27 191q23 172 45 286l6 39q-84 -47 -180 -47q-16 0 -28.5 12.5t-12.5 28.5t12.5 28.5t28.5 12.5q111 0 211 86q18 66 39 113q61 141 149 162q16 3 29 3t23 -3q37 -13 37 -54 q0 -30 -29 -73q-27 -39 -76 -93q-68 -72 -100 -102q-14 -55 -29 -129q-23 -115 -43 -281q-20 -154 -25 -176q18 4 33 4h7q165 0 284 -176q78 -121 129 -311q1 -4 1 -10q0 -10 -5 -20q-8 -14 -24.5 -18.5t-31 3.5t-18.5 24q-49 178 -119 285q-93 139 -212 139h-7 q-25 0 -57 -12q-33 -129 -47 -176q-43 -133 -88 -206t-96 -83q-11 -2 -21 -2q-57 0 -100 76zM104 137q19 -35 28 -35h1q18 2 45 45q39 63 80 187q9 24 27 94q-47 -33 -88 -74q-63 -63 -91 -123q-13 -30 -13 -54q0 -22 11 -40z" />
<glyph unicode="M" horiz-adv-x="1304" d="M43 1056q-3 7 -3 15q0 9 4 17q8 16 24 22q72 27 200 160q10 8 43 41l43 45q20 20 35 30q10 6 19 11q11 5 22 5q8 0 14 -3q47 -18 50 -88q0 -14 -2 -29q20 18 38 33q75 55 136 55h4q84 -4 116 -106q20 -58 20 -144q0 -50 -7 -110l14 28q94 178 180 250q57 49 113 51h9 q61 0 110 -49q70 -70 82 -213q3 -32 3 -67q0 -89 -18 -203q-16 -106 -53 -270q-43 -193 -45 -205q-23 -121 -23 -320q0 -16 -12 -28.5t-28.5 -12.5t-28.5 12.5t-12 28.5q0 207 22 336q6 29 47 207q37 162 53 264q17 113 17 197q0 29 -2 55q-10 113 -60 162q-29 27 -55 24 q-29 0 -65 -30q-76 -63 -160 -228q-82 -156 -152 -356q-6 -35 -10 -61l-33 -240v-12v-23q0 -20 -6 -33q-10 -16 -27 -24q-16 -6 -34.5 1t-26.5 25q-4 8 -4 19q-2 12 -2 33q0 29 6 82q12 98 16 125q10 41 41 129q2 18 21 114q20 92 29 150q19 115 19 196q0 71 -15 115 q-16 49 -43 49h-3q-32 0 -81 -39q-68 -49 -129 -135l-11 -31q-4 -14 -6 -16q-43 -195 -88 -516q-61 -446 -76 -524q-4 -16 -17 -25.5t-30.5 -6.5t-27 16.5t-7.5 31.5q12 61 76 518q43 307 84 496q-16 20 -4 42.5t33 51.5q12 45 20 78q10 41 13 67l-84 -84 q-141 -145 -232 -180q-16 -6 -31.5 1t-21.5 23z" />
<glyph unicode="N" horiz-adv-x="960" d="M37 1103q0 18 10 30q8 8 28.5 30.5t26.5 30.5q45 49 80 82q92 82 169 82q21 0 40 -6q18 -6 29 -25q4 -8 6 -18q4 -14 4 -37q4 -35 4 -94v-21q43 92 92 154q98 123 221 123h15q117 -8 164 -181q18 -76 30 -227q4 -51 4 -115q0 -157 -24 -395q-30 -290 -30 -444 q0 -26 1 -49q0 -16 -11 -29.5t-27.5 -13.5t-30 11t-13.5 27q-1 24 -1 51q0 161 30 455q24 232 24 388q0 61 -4 110q-10 139 -28 209q-31 117 -88 121h-10q-82 0 -158 -92q-72 -90 -131 -261q-23 -61 -41 -131q-16 -199 -60 -587q0 -2 -1 -13.5t-3 -26t-4 -35t-4 -38.5 q-6 -47 -10 -74q-2 -16 -4 -26q-2 -6 -2 -11l-4 -8q-4 -6 -9 -10q-12 -12 -28 -12q-20 0 -33 18q-4 4 -6 8t-2 8.5t-2 8.5v24q-2 35 -2 84q0 137 14 283q23 207 80 422q6 80 10 153q4 59 4 142q0 53 -2 84q-10 -4 -30.5 -8.5t-42 -12.5t-41.5 -27q-31 -29 -72 -73 q-6 -8 -26.5 -32t-28.5 -34q-12 -12 -30 -12t-30 11t-12 29z" />
<glyph unicode="O" horiz-adv-x="954" d="M109 821q51 195 178 383q158 233 327 271h6q12 1 24 -7q14 -10 18 -26.5t-5.5 -30.5t-25.5 -18q158 -47 241 -203q83 -152 83 -367q0 -50 -5 -104q-25 -266 -141 -481q-131 -238 -309 -279q-49 -11 -93 -11q-157 0 -251 136q-93 136 -93 347q0 227 46 390zM145 436v-9 q0 -186 78 -298q67 -97 184 -97q36 0 76 9q141 31 252 235q111 199 133 451q5 53 5 102q0 192 -72 322q-94 172 -295 178q-78 -61 -152 -172q-119 -178 -168 -356q-39 -147 -41 -365z" />
<glyph unicode="P" horiz-adv-x="1159" d="M80 1312v6q0 14 8 26q10 14 26.5 16t139.5 43q59 18 84 27q18 6 31 8q6 2 10 2h10q16 0 27 -10q31 -27 35 -91q37 20 129 56q145 53 248 53q53 0 96 -14q113 -37 172 -140q57 -102 63 -233q1 -16 0 -32q0 -103 -33 -205q-39 -116 -112 -187q-125 -113 -297 -158 q-72 -17 -124 -27q-29 -5 -65 -6q-28 0 -60 4q-73 8 -128 42q-2 0 -4 2q-47 -285 -123 -492q-5 -16 -21 -24q-8 -4 -17 -4q-7 0 -15 4q-16 6 -23.5 21t-1.5 32q57 154 90 312.5t66 409.5t45 328q2 6 3 15.5t4 25t7 25.5q4 23 6 41q-20 20 -8 49q8 16 21 33q2 37 2 63 q-2 10 -4 19l-5 -2q-25 -6 -81 -25q-137 -45 -153.5 -47t-31 8t-16.5 26zM346 565q18 6 35 -4q41 -25 96 -30q22 -2 43 -2q30 1 60 5q48 8 116 23q152 41 260 141q59 54 92 154q29 90 29 184v23q-4 111 -50 190.5t-128 106.5q-31 10 -71 10q-88 0 -220 -49 q-125 -45 -162 -82v-4q-6 -43 -16 -101l-6 -24l-4 -25q-2 -8 -2 -12q-14 -90 -37 -260t-35 -244z" />
<glyph unicode="Q" horiz-adv-x="976" d="M109 805q51 190 180 375q86 123 176 190q4 4 10 8q70 49 139 66h6q13 0 24 -8q15 -9 20 -25q2 -16 -6.5 -29.5t-24.5 -17.5q156 -47 239 -199q81 -147 81 -358q0 -51 -5 -105q-25 -264 -141 -473l-19 -30q18 -35 50 -117q39 -106 67 -137q31 -32 81 -32q21 0 44 5 q16 2 30.5 -7t17.5 -25q1 -5 1 -9q0 -12 -7 -23q-9 -14 -25 -18q-32 -7 -61 -7q-85 0 -140 60q-41 43 -86 166l-25 66q-109 -133 -235 -162q-49 -10 -93 -10q-156 0 -249 129q-95 130 -95 344q0 224 46 383zM145 426v-9q0 -184 78 -290q68 -95 185 -95q35 0 75 9 q113 23 209 160q-57 80 -162 88q-16 2 -27 14t-9 29.5t14 29t31 9.5q124 -11 200 -97q106 195 129 435q5 52 5 100q0 188 -72 315q-92 170 -293 176q-78 -61 -152 -167q-121 -174 -170 -349q-39 -143 -41 -358z" />
<glyph unicode="R" horiz-adv-x="843" d="M82 -8q12 51 18 135q10 109 15 145q16 113 39 224q-8 6 -15 14q-24 37 -24 72q0 36 26 69q20 25 56 45q82 334 200 594q6 16 22.5 22.5t32 -0.5t21.5 -23.5t-2 -31.5q-104 -231 -180 -524q100 29 170 29q28 0 51 -4l6 -2q111 100 178 196q83 120 83 221q0 33 -9 64 q-20 69 -87 97q-44 18 -102 19q-29 0 -61 -5q-94 -16 -175 -62.5t-112 -99.5q-8 -14 -24 -18.5t-30.5 4t-19.5 25t5 30.5q41 74 138 129t206 71q38 4 76 5q32 0 64 -4q68 -7 123.5 -51t76.5 -120q12 -42 12 -86q0 -125 -96 -266q-63 -90 -162 -182q137 -80 197 -309 q39 -155 40 -355q0 -49 -3 -100q0 -16 -13.5 -27.5t-30 -11.5t-27.5 13.5t-11 29.5q2 45 2 88q0 193 -37 342q-53 217 -182 271l-17 -13q-55 -45 -170 -108q-63 -35 -106 -49q-4 -2 -8 -2q-23 -113 -39 -232q-6 -33 -15 -139q-8 -96 -18 -146q-4 -16 -18.5 -25t-31 -6 t-25.5 17q-7 11 -7 25v6zM256 588q25 10 55 26l101 60q-70 -8 -125 -27q-10 -4 -19 -8z" />
<glyph unicode="S" horiz-adv-x="1079" d="M59 -64q0 15 9 25q51 66 145 170l37 39q-35 72 -57 158q-28 111 -28 202q0 62 13 115q18 76 66 107q28 19 62 19q31 0 67 -17q61 -29 106 -150q12 -33 37 -106q129 178 238 368l-2 11q-2 76 -2 133q0 86 4 131q10 129 34 221q23 86 56 125q27 31 59 35q5 1 10 1 q32 0 62 -24q47 -37 49 -117q1 -10 1 -20q0 -51 -17 -119q-29 -123 -78 -221q-45 -90 -94 -178q2 -90 2 -161t-2 -124q-14 -303 -107 -444q55 -43 125 -60q49 -10 90 -10q26 0 48 4q58 10 128 47q16 10 32 5q14 -5 24 -20q6 -10 7 -20q0 -5 -2 -11q-5 -16 -20 -23 q-82 -47 -155 -60q-23 -3 -50 -3q-53 0 -118 13q-90 18 -160 74q-16 -16 -37 -28q-76 -54 -146 -54q-78 0 -149 66q-29 27 -53 61l-21 -20q-92 -100 -139 -164q-9 -14 -27 -16h-6q-14 0 -26 8q-16 11 -15 32zM258 625q-11 -44 -11 -97q0 -80 25 -180q14 -59 37 -112l49 57 l99 125q-49 147 -54 155q-35 90 -67 107q-31 14 -47 4q-20 -14 -31 -59zM350 158q25 -37 51 -64q46 -42 97 -42q47 0 98 36q10 8 20 18q-72 82 -127 220l-69 -86zM549 403l6 -18q51 -137 115 -213q72 125 84 389q2 68 2 148q-96 -158 -207 -306zM831 1012l25 47 q45 90 72 205q16 70 16 114q-2 43 -18 56l-11 6q-2 0 -8 -6q-20 -25 -39 -93q-23 -86 -32 -208q-5 -47 -5 -121z" />
<glyph unicode="T" horiz-adv-x="718" d="M51 338v6q1 16 9 26q10 14 27 15.5t30.5 -8.5t15.5 -27q8 -74 46 -141.5t89 -102.5q37 -25 73 -25q12 0 24 3q57 12 110 88q59 84 82 184.5t27 231.5v139q0 115 5 188.5t19 143.5q25 104 92 264q-2 0 -4 -2q-6 0 -8 -2h-2l-35 -16q-43 -20 -96 -54q-68 -39 -88 -49 q-104 -55 -221 -55q-16 0 -28.5 12t-12.5 28.5t12.5 29t28.5 12.5q96 0 182 45q18 10 84 49q61 37 102 55l50 23q2 2 4 2q2 2 6 2l10 2l33 12l4 4q2 0 8 4l6 9q14 10 27 12q6 2 13 2q10 0 20 -4q16 -8 22 -25q6 -13 6 -26q0 -22 -16 -45q-4 -6 -9 -12.5t-6 -8.5t-4 -4 q-78 -180 -98 -281q-14 -66 -19 -134t-5 -179v-143q-4 -139 -31 -252q-25 -111 -94 -211q-70 -100 -160 -119q-21 -5 -41 -5q-60 0 -119 40q-66 45 -112 128t-58 171z" />
<glyph unicode="U" horiz-adv-x="1024" d="M55 436q0 510 176 979q6 16 21.5 23.5t32 1.5t23.5 -22t1 -32q-172 -459 -172 -950q0 -100 23 -211q14 -70 35 -108q18 -31 32 -31q68 0 156 109q80 98 166 274q49 102 98 225q23 147 64 293q84 313 184 445q2 4 6 6q10 10 25 12h7q26 0 36 -27q4 -8 3 -17t-5 -28 q-10 -33 -37 -110l-39 -109l-2 -2v-4q-2 -6 -6 -20l-43 -142q-49 -158 -113 -319q-25 -150 -25 -273v-21q0 -265 99 -331q31 -21 74 -21q118 0 319 164q14 12 30 10q16 0 28 -14q10 -12 10 -26q0 -20 -15 -31q-224 -184 -374 -184q-65 0 -117 35q-135 91 -135 401v18v31 q-90 -182 -175 -287q-113 -137 -219 -139q-63 0 -104 74q-27 49 -43 131q-25 117 -25 227z" />
<glyph unicode="V" horiz-adv-x="884" d="M45 1030v7q0 67 38 146q40 83 99 150q61 70 115 94q24 11 46 11q10 0 19 -2q39 -8 56 -50q14 -38 15 -99q0 -24 -3 -52q-2 -29 -8 -74q-4 -47 -6 -61q-6 -63 -22 -200q-16 -136 -24 -215q-6 -59 -6 -137v-54q2 -112 23 -203q25 -119 66 -182q35 -51 71 -53q2 0 3 -1 q34 0 73 45q51 59 94 179q6 16 34 124.5t32 128.5q39 174 61 308q10 53 39 266q20 166 47 270q2 16 17.5 24.5t31.5 5.5q17 -2 25 -18q5 -10 5 -21q0 -5 -1 -11q-23 -98 -45 -260q-29 -217 -37 -269q-25 -137 -61 -311l-35 -135q-29 -111 -35 -131q-49 -133 -110 -205 q-63 -71 -134 -71h-10q-76 6 -133 89q-51 78 -80 211q-18 96 -21 215q-1 32 -1 62q0 79 6 139q8 82 24.5 220.5t20.5 197.5q2 14 8 60t8 73q2 22 2 40q0 49 -12 75q-2 0 -10 -4q-37 -16 -86 -72q-51 -59 -85 -129q-32 -66 -32 -112v-5q0 -18 -11.5 -30.5t-28.5 -12.5 t-29.5 11.5t-12.5 27.5z" />
<glyph unicode="W" horiz-adv-x="1433" d="M53 922q31 82 144 256q53 80 94 129q25 29 45 41q22 17 43 17q11 0 22 -5q35 -14 50 -57q8 -20 12 -56q1 -10 1 -24q0 -59 -20 -187q-6 -29 -12 -73l-12 -76q-6 -31 -8 -49q-20 -182 -21 -465q0 -8 -2 -51q-1 -29 -1 -55v-25q1 -37 7 -70q8 -53 27 -74q16 -18 47 -8 q25 8 61 88q37 72 74 205q27 92 60 225q31 129 38 154q33 102 54 178q18 72 32 115q2 8 5 12q0 4 2 6t2 4q2 2 4 6q10 10 24 13q33 4 45 -27q2 -6 2 -14v-6q-2 -6 -8 -27q-20 -59 -46.5 -229t-35.5 -328q-2 -40 -1 -77q0 -141 24 -222q16 -51 41 -72q20 -18 51 -10 q61 12 104 131q12 33 21.5 68.5t19 82t13.5 58.5q2 14 27.5 134t50.5 218q25 94 57 187q139 379 369 403h5q12 0 24 -9q16 -13 16 -32q0 -13 -10 -25q-12 -14 -27 -16q-178 -18 -299 -350q-31 -88 -56 -180q-25 -94 -49 -212t-30 -139q0 -6 -10.5 -53t-20.5 -88t-23 -76 q-59 -162 -166 -184q-17 -3 -33 -3q-51 0 -87 34q-43 35 -66 108q-27 90 -27 240v39l-16 -60q-41 -137 -78 -217q-53 -113 -112 -131q-25 -8 -48 -8q-50 0 -84 39q-35 39 -47 115q-6 37 -8 80q-1 22 -1 44t1 46l2 45q0 289 21 473q2 18 7 50t13 78t12 75q20 117 20 169 q0 12 -1 21q-2 23 -6 35q-10 -8 -23 -21q-37 -43 -88 -120q-106 -164 -133 -240q-6 -14 -21.5 -22.5t-31 -2.5t-23.5 22q-5 9 -5 18q0 7 3 14z" />
<glyph unicode="X" horiz-adv-x="1112" d="M71 54q-1 4 -1 8q0 13 8 24l457 627l18 24l-117 203q-35 57 -114 225q-68 141 -115 215q-8 14 -5 30.5t17 26t30.5 6.5t26.5 -18q43 -70 119 -225q78 -160 111 -219l98 -170l244 344q23 31 59 90q39 59 74 111q35 47 72 90q9 12 27 14h6q14 0 24 -9q14 -13 14 -33 q0 -14 -10 -25q-33 -39 -65 -86l-72 -105l-64 -96l-264 -373q244 -416 430 -670q10 -14 8 -30.5t-16 -26.5q-12 -8 -25 -8h-6q-16 2 -26 16q-184 250 -416 645l-455 -622q-8 -12 -25.5 -15.5t-30.5 5.5t-16 27z" />
<glyph unicode="Y" horiz-adv-x="968" d="M72 1223q10 8 43 39l49 47q18 16 48 39.5t56 37.5q31 18 68 35q18 6 29 11q10 2 16 2q4 1 8 1l8 -1q25 -6 31 -33q2 -10 -2 -23q0 -6 -4 -14q-4 -14 -12 -35l-45 -100q-76 -170 -113 -281q-41 -128 -41 -209q0 -25 4 -45q8 -45 33 -65q31 -25 88 -25q31 0 88 58 q55 53 127 153l76 113l75 125q39 66 41 67q31 49 82 148q0 2 11 26q4 12 8 17q4 6 8 10q25 23 51 4q14 -10 19 -27v-10q0 -8 -7 -31q-4 -14 -12 -38l-37 -109l-49 -147q88 86 187 155q14 10 30.5 7t26.5 -16q8 -10 8 -22q0 -4 -1 -7q-3 -17 -15 -27q-145 -104 -275 -250 q-10 -51 -39 -219q-41 -223 -80 -353q-29 -94 -63 -143q-57 -84 -144 -84h-12q-61 4 -84 66q-11 30 -11 73q0 12 1 25q6 92 33 156q117 279 323 518l19 84q-55 -90 -105 -158q-74 -106 -135 -166q-82 -80 -145 -80q-88 0 -139 43q-49 41 -62 115q-5 28 -5 60q0 96 44 235 q37 115 115 287l26 57l-6 -2q-23 -14 -48 -33.5t-42 -34.5l-47 -45l-43 -43q-12 -10 -29.5 -10t-29.5 13q-11 11 -11 28q0 18 13 31zM428 164v-17q0 -32 6 -49q4 -12 10 -12h4q46 0 80 49q27 39 54 121q37 121 75 342l13 74q-135 -184 -217 -381q-20 -49 -25 -127z" />
<glyph unicode="Z" horiz-adv-x="1470" d="M55 1012q18 96 109.5 192t212.5 158q81 42 161 60q46 11 94 11q35 -1 71 -7q85 -14 145 -68q55 -53 74 -127q40 8 75 7q145 0 222 -126q57 -94 77 -194q113 14 236 16q16 0 28.5 -11.5t12.5 -28.5t-11.5 -29.5t-29.5 -12.5q-117 -2 -225 -16v-22q0 -153 -78 -306 q-70 -131 -186.5 -243.5t-254.5 -184.5q-125 -66 -202 -90q-73 -23 -131 -23q-67 0 -113 31q-78 53 -78 149q0 58 29 132q49 131 139 227q295 317 782 399q-16 86 -65 166q-53 86 -154 86q-31 0 -67 -8q-2 -18 -8 -35q-14 -59 -69.5 -144t-127.5 -159q-80 -84 -156 -131 q-78 -47 -144 -47q-12 0 -24 2q-2 0 -12 2q-10 0 -18 2q-35 6 -50 33q-14 23 -14 50q0 21 8 44q12 37 45 80q33 47 99 110q66 66 162 134.5t194 107.5l29 12q-10 49 -51 86q-63 55 -157 55q-4 -1 -8 -1q-100 -2 -212 -60q-109 -55 -186.5 -137t-90.5 -158q-4 -16 -17.5 -25 t-30.5 -6q-17 2 -27 16q-8 11 -7 26v6zM369 250q-22 -57 -22 -99q0 -56 40 -83q26 -18 69.5 -18.5t104.5 18.5q70 23 191 86q127 68 233 170q109 102 170 223q70 132 70 262v14q-457 -78 -731 -374q-80 -86 -125 -199zM387 719h8q12 -2 17 -2q6 -1 12 -1q42 0 102 36 q66 39 138 114q131 139 172 252q-88 -37 -175.5 -99.5t-146.5 -119.5q-59 -59 -90 -100q-25 -35 -33 -60q-4 -12 -4 -20z" />
<glyph unicode="[" horiz-adv-x="364" d="M63 1032q-8 137 0 221q4 51 17 86q14 45 43 66q47 31 162 35q35 2 55 2t51 -1t41 -1q16 0 28.5 -12.5t12.5 -29t-12.5 -28.5t-28.5 -12q-10 0 -40 1t-50 1t-55 -2q-90 -4 -119 -23q-4 -2 -10 -22q-8 -25 -13 -68q-8 -80 0 -209q4 -88 17 -221q14 -129 14 -147 q4 -96 4 -340q0 -10 -2 -51t-4 -111q-2 -55 -4 -121q-4 -109 -4 -172v-57q0 -8 2 -11q23 -27 100 -32q35 -4 82 -4q12 2 35 2h35q16 0 28.5 -12.5t12.5 -29t-12.5 -28.5t-28.5 -12h-33q-23 0 -37 -2q-49 0 -90 4q-125 12 -166 73q-6 10 -8 27q0 8 -2 23v61q0 61 4 174 q2 82 4 119q2 68 4 108.5t2 51.5q0 244 -4 336q0 16 -12 143q-16 160 -19 225z" />
<glyph unicode="\" horiz-adv-x="620" d="M22 1382.5q5 16.5 20 24.5t31.5 3t24.5 -21q68 -131 308 -678q92 -211 126.5 -297t96 -257t94.5 -311q4 -16 -4 -31.5t-24.5 -18.5t-32 5.5t-17.5 24.5q-33 137 -93 304t-97 253l-123 295q-209 485 -307 674q-8 14 -3 30.5z" />
<glyph unicode="]" horiz-adv-x="356" d="M-61 1317.5q-2 17.5 8 31t28 15.5q92 10 166 14q61 4 101 0q25 -2 41 -6q31 -8 41 -33q16 -37 -5 -118q-20 -84 -20 -88q-2 -18 -2 -95v-90q2 -145 12 -416q10 -254 13 -387q6 -299 12 -366v-2q2 -4 6 -17q10 -39 -16 -61q-12 -10 -35 -16q-16 -4 -39 -9q-35 -4 -90 -6 q-39 -2 -154 -2q-16 0 -28.5 12.5t-12.5 29t12.5 28.5t28.5 12q113 0 152 2q51 2 82 6q8 0 14 2q-2 8 -2 13q-6 72 -12 374q-2 127 -13 383q-10 272 -12 420v90q0 80 2 103q0 8 23 100q10 35 10 55h-14q-33 4 -91 0q-74 -4 -161 -14q-16 -2 -29.5 8t-15.5 27.5z" />
<glyph unicode="^" horiz-adv-x="729" d="M57 621q12 82 109 297q84 190 143 286l47 82l35 53q10 12 19 21q4 6 10 10q16 10 35 8q20 -4 34 -24q6 -10 15 -27q8 -23 18 -57q8 -25 15 -56l4 -16v-6q33 -104 112 -307q84 -211 113 -312q6 -16 -2 -31.5t-24.5 -20.5t-32 3t-19.5 25q-31 102 -113 307 q-80 207 -112 313q0 2 -2 5v2v4l-4 16q-6 29 -13 51l-6 17l-12 -21l-47 -80q-55 -94 -139 -280q-90 -205 -101 -275q-2 -16 -16 -26.5t-30.5 -8.5t-27 17t-8.5 31z" />
<glyph unicode="_" horiz-adv-x="1067" d="M-16 -223.5q0 16.5 12.5 29t28.5 12.5q184 0 550.5 3t550.5 3q16 0 28.5 -12.5t12.5 -28.5t-12 -28.5t-29 -12.5q-184 0 -550.5 -3t-550.5 -3q-16 0 -28.5 12t-12.5 28.5z" />
<glyph unicode="`" horiz-adv-x="260" d="M60.5 1395.5q2.5 19.5 19 30t36 7t29.5 -19.5q23 -33 59 -94.5t46 -75.5q10 -16 5 -35.5t-21.5 -30t-36 -5t-29.5 21.5q-8 16 -44 75.5t-56 90.5q-10 16 -7.5 35.5z" />
<glyph unicode="a" horiz-adv-x="749" d="M56 359q16 122 72 250t141 227.5t180 134.5q52 19 96 19q22 0 41 -4q59 -14 92 -66q33 -50 33 -116q0 -47 -17 -102v-2v-2v-2v-2l-2 -4l-2 -14l-10 -49q-14 -78 -29 -131q-20 -82 -47 -154q-10 -51 -14 -98q-3 -29 -3 -54q0 -64 19 -100q19 -35 65 -34q11 0 23 1 q16 2 30 -8q13 -11 16 -27q1 -4 1 -7q0 -12 -8 -22q-10 -13 -26 -18q-21 -3 -40 -3q-93 0 -135 81q-23 45 -26 115q-84 -109 -180 -150q-43 -19 -83 -19q-30 0 -57 11q-70 27 -108 121q-26 75 -26 157q-1 35 4 71zM138 350q-5 -36 -5 -70q0 -66 19 -116q27 -63 65 -78 q11 -4 25 -5q23 -1 52 13q46 20 93 64.5t78 93.5q33 51 59 115q8 35 66 256v8q0 6 1 16t1 23q3 41 26 59q12 40 12 73q0 42 -20 72q-21 33 -65 33q-29 0 -68 -14q-76 -27 -149.5 -113t-124.5 -203t-65 -227z" />
<glyph unicode="b" horiz-adv-x="866" d="M66 158.5q0 17.5 12 30t31 12.5q4 20 10 45l10 41q4 16 4 24q15 70 33 142l10 75l123 869q3 17 17 27q12 9 25 8h5q16 -2 26.5 -16.5t8.5 -31.5l-86 -598q63 113 139 156q47 26 95 25q70 0 143 -54q123 -92 169 -226q31 -89 31 -176q0 -43 -8 -85q-23 -129 -96 -238 q-119 -176 -299 -204q-32 -5 -64 -5q-114 0 -225 70q-6 -23 -10 -35t-8 -18q-12 -16 -31 -19h-7q-25 0 -36 25q-6 14 -6 37q0 16 2 39q2 16 6 41l-12 12q-12 10 -12 27.5zM201 135q103 -76 208 -75q23 0 46 3q145 25 245 170q63 94 83 205q7 38 7 75q0 73 -26 146 q-41 113 -141 189q-49 37 -93 37q-28 0 -55 -15q-66 -37 -127 -155q-55 -111 -100 -279q-27 -195 -47 -301z" />
<glyph unicode="c" horiz-adv-x="819" d="M77 347q-4 36 -4 70q0 101 31 193q43 135 147.5 255t233.5 163q47 15 90 15q27 1 51 -5q66 -16 108 -64t45 -114v-10q0 -62 -36 -127q-8 -14 -24.5 -18.5t-30.5 4t-18 25t4 30.5q25 45 25 84q0 40 -27 74q-35 40 -92 40q-32 0 -70 -12q-106 -37 -197.5 -141t-130.5 -223 q-26 -84 -27 -173q-1 -29 3 -59q12 -121 63 -199.5t129 -86.5q11 -1 23 -2q86 0 192 79q152 113 211 265q6 16 22.5 23t32 1t22.5 -22q4 -9 4 -18q0 -7 -3 -13q-70 -176 -240 -301q-129 -96 -241 -96q-15 0 -31 2q-117 12 -190 125q-61 96 -75 236z" />
<glyph unicode="d" horiz-adv-x="882" d="M53 280q2 136 45 257q100 285 250 378q58 36 128 35q19 0 38 -2q76 -12 115 -71q12 -16 20 -39q47 236 137 551q4 16 20 25q10 6 19 6l11 -2q16 -4 25 -20q5 -9 5 -19q0 -6 -2 -11q-135 -473 -174 -778q14 -10 16 -26.5t-8 -31.5l-16 -24q-9 -82 -9 -152q0 -23 1 -45 q2 -76 18 -159q10 -57 23 -91q6 -12 10 -18q20 14 31 20q14 8 30.5 2t24.5 -20t2 -30.5t-20 -24.5q-2 -2 -4.5 -3t-7.5 -5.5t-11 -8.5q-24 -17 -46 -17q-9 0 -17 3q-41 8 -68 74q-16 39 -29 104q-16 90 -18 170q-1 16 -1 33.5t1 34.5l-113 -176q-121 -180 -219 -213 q-25 -8 -47 -8q-28 0 -53 12q-39 20 -66 69q-41 82 -41 210v11zM136 280v-7q0 -117 32 -175q12 -27 28 -35q8 -4 17.5 -4t19.5 4q72 25 177 181l168 258q-31 14 -25 45q29 132 29 199v8q-2 51 -21 77q-18 29 -59 35q-15 2 -30 2q-43 0 -79 -22q-127 -78 -217 -338 q-39 -106 -40 -228z" />
<glyph unicode="e" horiz-adv-x="806" d="M74 264q-7 50 -7 102q0 142 54 300q74 214 227 315q74 47 129 51h5q59 0 89 -49q21 -34 21 -81q0 -56 -29 -130q-57 -145 -166.5 -276t-242.5 -213v-7q25 -162 114 -190q18 -6 39 -5q101 0 256 144l51 47q18 16 37 38t25 30l29 41l40 55q10 12 26.5 15.5t30 -7 t16.5 -26.5q1 -4 1 -8q0 -12 -8 -23l-35 -47l-26 -39q-8 -10 -22.5 -27.5t-27 -31t-32.5 -31.5l-47 -47q-180 -165 -315 -165q-32 0 -62 9q-139 43 -170 256zM150 379q109 74 198.5 187.5t136.5 234.5q25 64 25 104q0 22 -8 37q-6 8 -21 8q-33 -2 -88 -39 q-111 -72 -176 -223t-67 -309z" />
<glyph unicode="f" horiz-adv-x="485" d="M44 34q-1 4 -1 7q0 13 8 25q23 33 39 65.5t27.5 77.5t15.5 68.5t13.5 87t11.5 84.5q12 74 29.5 229.5t25.5 214.5q-29 -2 -57.5 -2t-55.5 2q-16 2 -27.5 14.5t-9 29.5t15 28.5t30.5 9.5q27 -2 55 -2t59 2q23 154 53 256q35 117 70 166q51 73 131 73h6q43 -2 77 -28.5 t46 -73.5q5 -18 5 -47.5t-5 -69.5q-2 -20 -8 -53t-6 -41q-2 -18 -15.5 -28.5t-31 -8.5t-27.5 15.5t-8 29.5q2 10 7 43t7 54q6 39 6 63q0 14 -2 23q-12 39 -47 41h-4q-38 0 -63 -37q-29 -39 -60 -146q-27 -92 -47 -221q68 10 205 45q16 4 30.5 -4t18.5 -24.5t-4 -31 t-25 -18.5q-147 -39 -237 -51q-8 -61 -25.5 -222t-29.5 -243q-4 -16 -12.5 -80.5t-13.5 -92t-18.5 -78t-32 -90.5t-46.5 -79q-8 -12 -25 -15q-5 -1 -9 -1q-12 0 -23 7q-13 9 -16 27z" />
<glyph unicode="g" horiz-adv-x="690" d="M44 -342q-4 7 -4 15t4 17q7 15 23.5 21t30.5 -2q99 -46 173 -46q39 0 71 13q76 31 123 140q29 66 47 151q20 88 36.5 197t26.5 162l-96 -138q-80 -98 -153 -141q-57 -33 -108 -33q-37 0 -71 17q-57 31 -67 131q-3 24 -3 52q0 56 11 128q25 184 68 295q41 102 111.5 200.5 t156.5 141.5q63 31 120 31q36 0 70 -13q102 -37 111 -161q1 -15 1 -33q0 -37 -5 -86v-6q2 -18 -2 -52q-2 -20 -6 -49v-14q0 -10 -4 -21q-4 -23 -9 -49q-20 -111 -43 -217q-10 -43 -27.5 -154.5t-39 -206.5t-49.5 -165q-61 -139 -168 -182q-46 -18 -101 -18q-92 0 -206 52 q-16 6 -22 23zM162 170q6 -57 22 -66q15 -9 34 -9q30 0 67 24q57 35 131 123q61 74 110 159q51 88 70 140q6 16 25 121q2 4 2 10v16v23q0 23 6 34q4 13 14 21q1 18 1 34.5t-1 30.5q-4 70 -57 91q-18 6 -38 6q-39 0 -87 -23q-68 -33 -130.5 -119t-97.5 -178 q-41 -102 -65 -278q-8 -65 -8 -115q0 -24 2 -45z" />
<glyph unicode="h" horiz-adv-x="702" d="M0 33l90 450q70 334 103 516q6 31 12 66l10 78q6 41 10 63q18 127 43 209q4 17 18 25q10 6 21 5q5 0 11 -1q16 -4 24 -18.5t4 -30.5q-23 -86 -41 -201q0 -6 -12 -86l-19 -121l-38 -205q59 53 126 88q56 28 112 42q26 6 53 7q31 -1 63 -9q60 -16 94 -68q30 -40 30 -131 q0 -16 -1 -33q-2 -72 -23 -223q-14 -92 -18 -126q-4 -33 -12 -103q-7 -61 -6 -103v-10q1 -43 10 -78q2 -16 -7.5 -30.5t-26 -17.5t-30.5 6t-18 25q-6 34 -6 90q0 117 28 328q2 20 4 31q20 147 23 213q1 17 1 32q0 63 -14 85q-29 39 -85 40h-3q-55 0 -129 -38 q-72 -39 -128 -95.5t-70 -103.5q-2 -8 -6 -14q-106 -522 -115 -570q-4 -16 -18 -25q-11 -7 -23 -7q-5 0 -9 1q-16 3 -25 17q-7 11 -7 25v6z" />
<glyph unicode="i" horiz-adv-x="333" d="M98 119q0 37 2 72.5t4 60t8.5 62.5t9.5 59.5t12 71t13 75.5q6 29 33 221q20 141 43 226q4 16 18.5 24t31 4t24.5 -18.5t4 -30.5q-23 -84 -41 -215q-31 -219 -33 -223q-4 -29 -12 -78t-12 -69.5t-9.5 -57.5t-7.5 -60.5t-4 -57t-2 -67.5t2 -75q0 -16 -11 -29.5t-27.5 -13.5 t-30 11.5t-13.5 27.5q-2 43 -2 80zM295 1212.5q0 16.5 12 28.5t28.5 12t29 -12t12.5 -28.5t-12.5 -29t-29 -12.5t-28.5 12.5t-12 29z" />
<glyph unicode="j" horiz-adv-x="315" d="M-244 -70q0 16 12.5 27.5t30 11.5t28.5 -12.5t11 -30.5v-7q0 -48 27 -113q29 -70 67 -107q31 -29 52 -21q33 14 59 107q14 57 24.5 129t14.5 121t8 139t6 129q16 246 70 571q4 16 17.5 26.5t29.5 7.5t26.5 -16t8.5 -30q-53 -322 -70 -563q-2 -35 -6 -127t-8 -143.5 t-15.5 -127t-27.5 -137.5q-35 -131 -105 -162q-21 -9 -43 -9q-48 0 -96 47q-53 49 -88 134q-33 80 -33 148v8zM195 1146.5q0 16.5 12 29t28.5 12.5t28.5 -12.5t12 -29t-12 -28.5t-28.5 -12t-28.5 12t-12 28.5z" />
<glyph unicode="k" horiz-adv-x="755" d="M62 -18q-2 5 -1 11q0 10 7 21q63 115 114 340q-8 23 8 41q10 41 30 138.5t32 144.5q14 70 76 303q49 188 69 301q5 16 19 26q11 7 23 7q3 0 7 -1q16 -3 25.5 -17.5t7.5 -30.5q-23 -117 -71 -305q-76 -289 -78 -299q-8 -43 -35 -170q49 51 104.5 118.5t92.5 116.5l96 133 l90 125q10 14 26.5 16.5t31.5 -7.5q14 -12 16 -28v-5q0 -14 -9 -25l-81 -113l-103 -141l-92 -119q20 4 41 6q10 1 19 1q76 0 118 -60q35 -47 41 -135q2 -24 2 -60.5t-2 -85.5q-1 -27 -1 -47q0 -41 3 -57q2 -16 5 -25.5t6 -14.5t16 -22l20 -30q8 -14 5 -30.5t-17 -26 t-30.5 -6.5t-26.5 18q-6 10 -19.5 29.5t-17.5 27.5t-11.5 26.5t-11.5 41.5q-3 21 -3 67q0 23 1 53q2 46 2 80t-2 56q-4 67 -24 95q-17 24 -52 24q-6 0 -12 -1q-96 -8 -217 -110l-12 -8l-21 -19q-57 -248 -129 -377q-7 -14 -23 -19q-6 -2 -12 -2q-10 0 -19 6q-15 8 -21 24z " />
<glyph unicode="l" horiz-adv-x="421" d="M14 32q-1 6 -1 11q0 10 5 20q59 104 113 226q-17 123 -21 250q-1 44 -2 87q0 78 4 148q6 108 25 285q14 135 27 198q14 66 33 111q29 61 67 84q21 11 40 11q17 0 34 -9q27 -14 41 -51q20 -43 27 -131q4 -56 4 -111t-4 -108q-33 -399 -191 -774q16 -100 43 -218 q4 -16 -4 -30.5t-24.5 -18.5t-31 4.5t-18.5 24.5q-14 59 -24 106q-33 -66 -68 -124q-8 -15 -24 -19q-6 -2 -12 -1q-10 0 -20 5q-14 8 -18 24zM195 455q104 301 129 606q4 50 4 101.5t-4 103.5q-4 74 -19 104l-4 8q-14 -10 -29 -43q-16 -37 -28 -96q-12 -55 -25 -188 q-28 -287 -28 -470q0 -71 4 -126z" />
<glyph unicode="m" horiz-adv-x="1017" d="M47 12v29q0 33 6 82q16 119 49 213q4 10 9 22q20 92 24 117q53 258 55 359q0 16 12.5 27t30 11t28.5 -12t11 -31q-2 -78 -18 -180l18 35q70 117 131 182q84 90 154 90q84 0 105 -118q4 -25 4 -56q53 76 102 119q64 55 117 55h4q72 -2 104 -86q29 -72 29 -211 q0 -70 -21 -229q-25 -182 -108 -405q-6 -16 -21.5 -23.5t-32 -1.5t-23.5 21.5t-1 31.5q82 219 105 389q20 156 20 217q0 123 -22 181q-14 35 -31 34q-23 0 -64 -34q-45 -41 -96 -113q-37 -55 -72 -121q-16 -127 -59 -313q-27 -113 -37 -150q0 -2 -2 -10q-2 -14 -4 -20 q-4 -16 -10 -25q-14 -25 -41 -20q-23 2 -35 24q-23 43 -23 108q0 87 41 214q35 108 90 219l3 12q7 64 7 112q0 40 -5 68q-4 25 -10.5 37t-8.5 12h-4q-35 0 -92 -63q-57 -59 -121 -170q-92 -154 -154 -307q-10 -47 -16 -82q-10 -49 -27 -154l-10 -67l-4 -21v-4v-2q0 -2 -2 -4 v-2v-2q-2 -2 -2 -6q-4 -4 -6 -8q-12 -12 -31 -13q-27 0 -39 25q-4 8 -6 18z" />
<glyph unicode="n" horiz-adv-x="819" d="M39 -6q-8 34 -8 73q0 130 86 308q39 170 47 239q4 23 9 108t17.5 147.5t38.5 115.5q9 15 25 21q7 3 13 2q9 0 17 -4q14 -8 20.5 -25t-1.5 -31q-25 -47 -34 -98t-14 -129t-9 -119q-2 -6 -2 -16q90 133 186 237q70 72 158 125q61 39 110 45q11 1 21 1q58 0 90 -48 q37 -58 37 -169q0 -75 -17 -175q-10 -63 -36 -182q-25 -104 -29 -141q-18 -131 -19 -287q0 -16 -12 -28.5t-28.5 -12.5t-28.5 12t-12 29q0 162 18 299q6 39 31 147q27 117 37 178q16 94 16 160q0 86 -27 125q-8 14 -30 10q-31 -4 -80 -32q-78 -47 -137 -113 q-154 -162 -265 -358q-16 -31 -30 -62l-7 -27q-49 -217 -55 -241q0 -4 -6 -60q-2 -20 -6 -30q-2 -6 -6 -13q-18 -31 -51 -16q-8 4 -13.5 9t-7.5 9l-2 5z" />
<glyph unicode="o" horiz-adv-x="731" d="M57 150q-18 76 -18 157q-1 116 37 243q64 216 203 347q75 68 151 84q22 5 43 5q51 0 96 -28q49 -29 78 -84q16 4 31.5 -4t17.5 -24q33 -134 36 -268v-16q0 -127 -42 -263q-45 -145 -143 -240q-53 -47 -126 -71q-59 -20 -118 -20q-15 0 -29 1q-78 8 -138 53.5t-79 127.5z M135 170q27 -109 148 -119q12 -1 24 -1l86 16q57 18 96 55q94 88 132 227q27 104 27 218q0 40 -3 81q-16 0 -27.5 13.5t-11.5 29.5q1 11 1 21q1 58 -19 102q-22 51 -62 74q-28 17 -58 17q-61 0 -132 -68q-124 -116 -182 -310q-35 -117 -34 -221q-1 -70 15 -135z" />
<glyph unicode="p" horiz-adv-x="858" d="M-7 -421q-3 7 -3 14q0 9 4 18q20 49 37.5 100t34 117t24.5 101.5t25.5 120.5t23.5 110q-6 10 -12 22q-8 16 -2 31.5t20 24.5q6 2 11 4l108 544q-6 19 6 35q20 100 41 183q2 18 17 26q10 6 22 6q5 0 10 -1q17 -3 25 -17t4 -31l-18 -88q77 44 150 44q45 0 89 -17 q137 -55 209 -246q31 -84 37 -176q3 -31 3 -61q0 -63 -11 -125q-17 -93 -69 -174t-134 -126q-59 -35 -125 -41q-18 -2 -35 -2q-48 0 -92 13q-57 14 -117 47q-53 31 -71 43l-37 -176q-10 -53 -39 -152q-29 -94 -61 -172q-6 -14 -22 -22q-7 -3 -15 -3l-15 3q-16 8 -23 23z M225 174q8 -12 19 -22q18 -14 73 -48q87 -48 165 -48q64 0 122 32q86 49 131 148q43 94 43 195v9q-2 107 -35 213q-57 156 -161 197q-29 11 -60 11q-83 0 -176 -81q-18 -86 -57 -290.5t-64 -315.5z" />
<glyph unicode="q" horiz-adv-x="755" d="M76 537q29 203 119 358q59 102 133 152q56 36 111 36q19 0 38 -4q72 -16 115 -92q33 2 41 -29q14 -47 24 -96q10 59 25 107q4 16 19.5 24t32 3t24.5 -20q5 -9 5 -18q0 -7 -3 -14q-12 -39 -19 -84l-16 -102q-10 -61 -14 -92l-25 -142q-4 -111 -33 -205q-31 -199 -53 -385 q-6 -51 -33 -167q-25 -109 -28 -162q-2 -16 -15 -27q-12 -10 -26 -10h-4q-17 2 -28 15.5t-9 29.5q6 61 30 170q25 115 31 164l21 147q-45 -49 -107 -78q-59 -26 -119 -26h-8q-76 0 -134 43t-79 127q-27 106 -27 222q0 75 11 155zM158 526q-11 -76 -11 -147q0 -105 23 -199 q29 -108 135 -108h2h7q46 0 92 22q49 25 81 68q57 76 86 176l31 194q2 28 2 56q0 76 -12 157q-16 0 -28.5 12.5t-12.5 28.5q0 98 -28.5 151.5t-65.5 61.5q-8 2 -16 2q-33 0 -75 -27q-53 -34 -104 -120q-80 -139 -106 -328z" />
<glyph unicode="r" horiz-adv-x="690" d="M92 74q35 154 68 448l20 207q-10 23 2 43l4 6q14 119 31 209q3 15 17 25q10 7 23 8q5 0 9 -1q18 -3 26.5 -16.5t6.5 -31.5q-8 -39 -14 -82q39 37 77 65q101 73 181 73q45 0 84 -23q53 -35 63 -150q2 -29 3 -76t1 -57q2 -16 -9 -28.5t-28.5 -14.5t-30 9t-14.5 30 q0 10 -2 59q0 45 -2 72q-6 74 -26 86q-17 11 -40 11q-52 0 -132 -58q-82 -59 -144 -139q-6 -49 -26 -234q-37 -324 -66 -457q-4 -18 -18 -26q-11 -6 -23 -6q-5 0 -9 1q-18 3 -26 17q-6 11 -6 24v7z" />
<glyph unicode="s" horiz-adv-x="604" d="M47 374q-1 14 9 24q12 12 29 14t29.5 -9.5t14.5 -29.5q14 -197 74 -258q33 -37 82 -38q38 0 86 23q51 23 87 62t46 76q5 26 5 49q1 48 -21 87q-32 58 -105 122l-64 53q-39 31 -59 51q-65 65 -65 126v9q6 90 56 162t120 98q39 16 75 16.5t70 -16.5q74 -35 107 -131 q2 -7 2 -13q-1 -9 -5 -17q-8 -14 -24 -20.5t-30.5 2t-20.5 24.5q-20 63 -62 82q-17 8 -37 8q-22 0 -45 -10q-47 -18 -84 -72q-37 -51 -41 -117v-3q0 -28 41 -69q18 -18 54 -47l65 -53q84 -75 127 -153q28 -50 27 -112q0 -35 -8 -73q-12 -61 -62.5 -114.5t-113.5 -81.5 q-51 -27 -115 -27q-10 0 -21 1q-77 5 -129 58q-94 102 -94 317z" />
<glyph unicode="t" horiz-adv-x="503" d="M57 972.5q0 16.5 12.5 29t28.5 12.5q70 0 174 14q55 186 95 260q9 16 25 22q6 2 12 2q10 0 19 -6q15 -8 20.5 -24t-3.5 -31q-33 -61 -78 -211q123 16 201 17q16 0 28.5 -12.5t12.5 -29t-12 -28.5t-29 -12q-76 0 -227 -21q-39 -141 -74 -309q-45 -217 -61 -371 q-8 -77 -8 -132q0 -67 12 -101q2 -6 6 -6q25 -4 51 22q31 29 60 90q39 80 71 211q4 16 18.5 24.5t31 4.5t24.5 -18.5t4 -30.5q-33 -137 -76 -225q-35 -76 -76 -115q-47 -47 -100 -47q-10 0 -20 2q-53 10 -72 59q-16 47 -16 132q0 60 8 139q16 164 63 379q29 143 66 280 q-84 -10 -150 -10q-16 0 -28.5 12t-12.5 28.5z" />
<glyph unicode="u" horiz-adv-x="872" d="M84 455q18 223 78 501q4 16 18 26q11 7 23 7q4 0 8 -1q16 -3 25.5 -17.5t7.5 -30.5q-61 -274 -78 -491q-7 -77 -7 -141q0 -72 9 -126q14 -106 57 -125q15 -7 30 -7q36 0 71 38q51 53 98 174q18 53 36.5 117.5t30 107.5t22.5 98.5t15 65.5l19 90q16 70 26 105q0 2 2 12 l3 21q4 16 10 26q14 23 39 21q20 0 35 -19q15 -22 15 -62q0 -12 -1 -26q-2 -37 -19 -106q-59 -252 -63 -271q-16 -89 -16 -155q0 -52 10 -90q27 -98 129 -113q11 -2 22 -2q46 0 97 27q14 8 30.5 2.5t24.5 -20.5q5 -9 5 -19q0 -6 -2 -12q-5 -16 -22 -25q-68 -36 -133 -36 q-17 0 -34 3q-156 23 -195 172q-8 27 -12 57q-51 -135 -113 -200q-59 -63 -124 -63q-33 0 -68 16q-84 37 -107 186q-9 58 -9 135q0 68 7 150z" />
<glyph unicode="v" horiz-adv-x="630" d="M90 922q0 16 12.5 27.5t30 11.5t28.5 -12.5t11 -30.5q-3 -79 -3 -155q0 -254 36 -470q6 -37 10 -72l4 12q10 47 12 56q147 481 357 717q10 12 28 13h3q16 1 26 -9q13 -11 13 -31q0 -15 -9 -27q-197 -223 -340 -688q-2 -4 -10 -47q-12 -55 -20 -88q-12 -53 -23 -86 q-8 -20 -14 -33q-14 -27 -35 -33q-8 -2 -16 -2q-12 -1 -22 5q-17 10 -22 30q-4 14 0 33q0 4 1.5 12t3.5 11v8q-10 98 -29 207q-36 213 -36 478q0 79 3 163z" />
<glyph unicode="w" horiz-adv-x="854" d="M47 154q-3 33 -3 72q0 93 17 218q37 264 109 482q6 16 20.5 24t30.5 2q23 -6 27 -28l2 -2v-2v-2v-3v-2v-2v-2v-2v-2l-2 -2v-2q-68 -209 -105 -469q-18 -120 -18 -204q-1 -35 3 -64q10 -98 50 -115h2q10 8 27 31q31 43 69 131q47 109 93 254q31 100 32 110h2q2 16 5 29h81 v-2v-2v-2q-2 0 -2 -2v-4q-2 -16 -4 -31l-14 -90q-18 -109 -27 -184q-6 -66 -6 -116q0 -30 2 -54q6 -61 25 -72q10 -4 22 2q18 12 43 47q12 16 66 127q182 371 182 746q0 16 12.5 28.5t29 12.5t28.5 -12.5t12 -28.5q0 -397 -190 -783q-57 -115 -72 -137q-33 -47 -68 -70 q-27 -17 -55 -17l-51 15q-53 29 -66 134q-2 35 -2 77l-4 -8q-41 -96 -78 -145q-23 -35 -45 -51q-25 -17 -49 -17q-11 0 -22 4q-92 31 -109 185zM408 612v2v2l2 2v7q17 32 37 32q15 0 32 -18q10 -10 10 -27v-6v-2z" />
<glyph unicode="x" horiz-adv-x="761" d="M100 60q2 18 17 28q104 82 233 307l31 56q-166 258 -250 479q-6 16 1 31.5t23.5 21.5t32 -1t21.5 -24q74 -197 215 -421q61 127 88 217q8 29 29 125q18 84 34 131q5 16 21 23q8 4 17 4q7 0 15 -3q16 -6 23.5 -21.5t1.5 -31.5q-18 -45 -32 -119q-20 -98 -31 -129 q-33 -117 -115 -278q98 -150 277 -387q11 -14 11 -27q0 -17 -19 -31q-14 -11 -27 -10q-17 0 -31 18q-168 223 -256 355l-8 -19q-137 -238 -256 -331q-12 -10 -30 -9q-18 2 -28 16q-9 11 -8 25v5z" />
<glyph unicode="y" horiz-adv-x="819" d="M53 475q2 63 10 135l13 135q8 63 16 111l12 94q8 49 9 58q2 16 16 26q12 8 25 8h6q16 -2 26.5 -16.5t8.5 -30.5q-2 -6 -9.5 -54t-13.5 -93l-14 -111q-8 -63 -14.5 -132.5t-8.5 -133.5q-2 -54 -2 -100q0 -117 14 -191q23 -102 64 -102t92 49q49 47 98 135q66 117 107 250 q18 180 63 317q0 4 2 6.5t2 6.5q6 8 15 14q16 10 33 4q16 -4 24 -18q6 -10 6 -19v-8q0 -6 -4 -20q0 -6 -2 -16.5t-3 -17.5t-1 -13q-12 -88 -43 -211q-4 -18 -10 -41q-8 -76 -12 -166q111 111 210 114q16 0 29.5 -11t13.5 -27.5t-11 -30t-27 -13.5q-70 -2 -160 -92 q-29 -31 -58 -67q-1 -13 -1 -75v-74q1 -130 1 -148q0 -125 -8 -176q-10 -72 -39 -105q-20 -29 -52 -33q-5 -1 -10 -1l-54 18q-89 52 -89 182q0 13 1 27q6 121 82 268q39 78 88 145v31l-21 -41q-55 -98 -113 -153q-74 -72 -149 -72q-109 2 -143 166q-18 82 -18 207 q0 49 3 106zM403 -186q-1 -10 -1 -19q0 -86 51 -117q8 -4 10 -4t2 2q14 16 22 66q6 45 7 164v94v78l-17 -29q-66 -131 -74 -235zM463 -326h2h-2z" />
<glyph unicode="z" horiz-adv-x="819" d="M51 68q0 8 4 18l17 29q14 27 45 67q49 68 88 115q12 16 86 104l98 123l86 99q59 66 109.5 113.5t103.5 92.5q31 27 49 45l6 7q-27 2 -63 0q-100 -4 -154 -13l-108 -20q-109 -23 -164 -25q-18 0 -30.5 11.5t-12.5 29t11.5 29.5t27.5 12q39 2 81 9.5t95 18.5t88 17 q57 8 164 13q19 1 36 1q33 0 56 -3q23 -2 37 -7q10 -4 18 -10q18 -12 21 -33q2 -27 -19 -55q-10 -16 -30 -39l-56 -49q-53 -45 -100 -91t-104 -112l-82 -94l-101 -119q-74 -90 -88 -108q-37 -45 -82 -109l-30 -43h53q35 2 115.5 6t127 6t114.5 3q25 1 49 1q39 0 77 -2 q60 -2 119 -8q15 -2 27 -15q10 -11 10 -25q0 -18 -16 -32q-14 -12 -29 -10q-70 6 -156 8q-52 1 -88 0h-41q-43 -1 -164 -7.5t-141 -6.5h-64q-25 0 -38 2q-10 2 -19 2q-6 2 -10 4q-12 4 -21 13q-9 12 -9 27q0 5 1 10z" />
<glyph unicode="{" horiz-adv-x="1638" d="M102 954q10 35 50 62q55 39 155 51q178 18 305 -43l-2 6q-2 12 2 23q-12 41 -52 96t-91 98q-59 49 -109 64q-53 16 -90 -13q-47 -37 -47 -100q0 -27 11.5 -43t35.5 -16q37 -2 39 12q4 16 -20 35q-16 12 -4 28.5t28 4.5q47 -37 37 -78q-12 -45 -80 -43q-45 2 -67 32 q-20 27 -21 68q0 84 64 133q53 41 125 21q59 -18 125 -74q74 -63 125 -145q-4 10 -7 22q-16 80 -16 160q0 94 20 151q29 76 91 82q98 8 133 -49q29 -45 8 -108q-8 -27 -23 -45q-16 -23 -36 -25q-27 -6 -41 25q-10 20 -11 63q0 20 20.5 20.5t20.5 -20.5q0 -33 6 -47l9 8 q10 14 16 33q14 45 -4 76q-23 35 -94 28q-37 -4 -55.5 -55t-18.5 -135q0 -76 16 -154q10 -51 23 -80q10 -6 16 -14q16 72 60 135q18 27 65 70t96 74q66 41 117 47q82 10 117 -58q18 -35 8 -98q-4 -37 -22 -98q-20 -72 -25 -84q-2 -10 -2 -17q4 -2 8 -2q8 -2 25 -2h12 q12 -2 18 -2q47 -4 76 -20q43 -25 56 -82q23 -90 -54 -160q168 4 279 -74q92 -66 119 -172q33 -125 -35 -213q-53 -70 -168 -112q-84 -33 -289 -68q4 -14 0 -29q4 -25 -14 -43q-14 -12 -34 -12t-34 14l-16 19q-137 -113 -223 -156q-104 -51 -191 -43q-106 8 -180 107 q-74 94 -72 194q2 92 115 236l16 22q-4 -2 -8 -2q-66 -6 -100 6q-70 27 -88 78q-14 41 6 94q4 12 14 37q10 23 14 31q4 14 7 29q-4 2 -13 6l-82 37q-63 29 -92 45q-55 33 -71 65q-20 45 -7 86zM190 924q0 -4 5 -15q4 -8 32 -24q27 -16 82 -41q76 -33 86 -37q20 -10 33 -21 q27 -16 31 -41q10 -39 -10 -92q-4 -12 -17 -37l-12 -30q-8 -23 -6 -29q4 -10 32 -20q14 -6 60 -2q16 2 44 5t36 5l4 2q2 0 9 3t9 3q20 8 35 6q20 0 35 -16q14 -14 14 -37q0 -8 -2 -15.5t-4 -9.5l-2 -2l-2 -2v-2l-2 -2h-2v-2h-2l-6 -6l-23 -25q-37 -39 -67 -78 q-94 -119 -95 -178q-2 -70 52 -137q51 -66 114 -70q59 -6 140 33q78 39 204 144q-248 299 -358 759q-21 -1 -37 11q-39 29 -120 43t-163 6q-78 -8 -112 -35q-12 -6 -15 -14zM770 971l14 -19q39 -47 56 -73q168 -272 288 -656q209 39 283 66q90 33 125 82q41 51 20 131 q-18 74 -81 119q-90 63 -232 57h-2q-2 0 -7 -1t-11 -3l-45 -8q-29 -6 -48 -9q-14 -2 -22 -2q-23 0 -37 11q-14 12 -20 28q-8 20 0 41q6 20 30 37l33 21q23 12 33 20q76 47 65 98q-4 16 -14 23q-8 4 -35 6q-6 0 -16 1t-12 1q-20 2 -35 4q-49 8 -74 41q-14 18 -14 49 q2 16 6 41q0 2 26 90q16 55 21 86q4 33 2 39q-6 10 -23 8q-31 -4 -77 -32q-43 -27 -83 -64t-53 -53q-47 -68 -53 -158q-2 -12 -8 -22z" />
<glyph unicode="|" horiz-adv-x="239" d="M82 539.5q0 68.5 1 117t3 130t3 116.5t5 130t4 120q0 23 1 81t3 104t9 87q4 16 17 26.5t29.5 7.5t27 -16.5t8.5 -29.5q-6 -39 -8.5 -80t-2.5 -97t-2 -87q0 -14 -5 -136t-6 -154t-3 -132t-2 -152.5t1 -131t5 -148.5q2 -27 18.5 -280t16.5 -384q0 -16 -12.5 -28.5 t-29 -12.5t-28.5 12.5t-12 28.5q0 131 -16.5 382t-18.5 278l-4 121q-2 59 -2 127.5z" />
<glyph unicode="}" horiz-adv-x="1697" d="M68 1092q-2 20 10 34q4 6 10 11q4 2 10 2q2 2 6.5 2t10.5 2q12 0 32 2q47 2 140 4q172 4 270 -35q61 -25 121 -72q0 25 -2 48l-8 40q-2 14 6 27q0 2 2 4q-10 59 -31 103q-14 27 -47 70.5t-68 76.5q-43 37 -72.5 41t-49.5 -35q-10 -16 -12.5 -56t7.5 -75q8 -31 18.5 -35 t33.5 21q12 14 27.5 1t0.5 -30q-41 -47 -77 -29q-29 12 -44 62q-10 39 -8 87t17 75q33 61 92 55q43 -6 94 -51q66 -60 117 -146q16 94 59 181q35 68 76 94q55 37 111 -4q25 -18 42 -58.5t19 -78.5q4 -47 -20 -70q-29 -29 -82 -6q-18 6 -11.5 25.5t27.5 11.5q27 -10 37 -1 t8 37q0 31 -14.5 63t-30.5 44q-33 25 -63.5 3.5t-61.5 -79.5q-27 -51 -43 -110.5t-16 -87.5q0 -31 14 -80q23 -8 27 -33l4 -47q8 -33 20 -74q31 102 76 164q61 86 211 164l117 59l24 12q6 2 10 5q4 0 7 2h12q27 -4 35 -29q12 -39 -21 -86q-23 -31 -22 -35q-6 -27 -27 -180 q-16 -119 -43 -189q-10 -25 -57 -86l-8 -10q6 -2 47 -6q137 -18 200 -43q106 -41 176 -160q16 -25 54 -98q29 -59 51 -90q0 -2 31 -21q53 -33 45 -80q-6 -29 -37 -36q-12 -4 -27 -2q-2 2 -8 2l-6 2h-2l-60 -4q-8 -2 -49 -19q-256 -109 -485 -24q18 -94 31 -189v-2 q10 -16 4 -33q2 -16 -9.5 -29.5t-28 -15.5t-29.5 8.5t-15 28.5l-2 17q-57 100 -103 198q-168 -172 -465 -203q-27 -2 -94 -26l-45 -17l-14 -6l-4 -2h-4h-2q-2 -2 -7 -2h-8q-14 2 -26 12q-20 25 -15 58q4 16 17 37q18 29 18 30q4 31 0 107q-2 78 4 121q20 123 94 198 q96 98 205 154l-6 4q-76 31 -94 45q-63 47 -135 137q-98 123 -115 140q-27 29 -35 34l-16 2q-45 10 -53 48zM233 1065l117 -145q66 -82 121 -123q12 -8 76 -35l47 -21q10 -4 14 -6t7 -4t6 -2q8 -6 12 -14q14 -23 6 -45q-4 -18 -25 -33q-6 -4 -55 -29q-98 -47 -184 -137 q-55 -57 -70 -154q-6 -35 -4 -104q4 -82 0 -119q-2 -10 -6 -20q68 23 100 26q286 29 436 201q-117 281 -145 563q-2 29 -4 66q-82 80 -156 108q-84 33 -235 29q-29 0 -58 -2zM819 903q84 -215 92 -241q53 -168 88 -326q119 -55 231.5 -54t242.5 54q51 20 65 24q8 2 21 2 q-6 6 -11 13q-23 35 -55 98q-35 70 -49 92q-57 96 -135 125q-55 23 -185 39q-59 8 -77.5 12t-30.5 9q-10 4 -17 10q-16 14 -16 35q0 10 4 20q2 4 6 8q4 6 11 17l28 37q41 53 45 65q27 66 39 172q20 154 27 184q2 2 2 5l-45 -23q-131 -68 -182 -137q-47 -66 -82 -213 q-3 -17 -17 -27z" />
<glyph unicode="&#xa0;" />
<glyph unicode="&#xad;" d="M69 566.5q3 15.5 19 13.5q90 -18 222 -12.5t225 28.5q16 4 20 -12.5t-12 -20.5q-96 -23 -231.5 -29t-231.5 13q-14 4 -11 19.5z" />
<glyph unicode="&#x2000;" horiz-adv-x="818" />
<glyph unicode="&#x2001;" horiz-adv-x="1636" />
<glyph unicode="&#x2002;" horiz-adv-x="818" />
<glyph unicode="&#x2003;" horiz-adv-x="1636" />
<glyph unicode="&#x2004;" horiz-adv-x="545" />
<glyph unicode="&#x2005;" horiz-adv-x="409" />
<glyph unicode="&#x2006;" horiz-adv-x="272" />
<glyph unicode="&#x2007;" horiz-adv-x="272" />
<glyph unicode="&#x2008;" horiz-adv-x="204" />
<glyph unicode="&#x2009;" horiz-adv-x="327" />
<glyph unicode="&#x200a;" horiz-adv-x="90" />
<glyph unicode="&#x2010;" d="M69 566.5q3 15.5 19 13.5q90 -18 222 -12.5t225 28.5q16 4 20 -12.5t-12 -20.5q-96 -23 -231.5 -29t-231.5 13q-14 4 -11 19.5z" />
<glyph unicode="&#x2011;" d="M69 566.5q3 15.5 19 13.5q90 -18 222 -12.5t225 28.5q16 4 20 -12.5t-12 -20.5q-96 -23 -231.5 -29t-231.5 13q-14 4 -11 19.5z" />
<glyph unicode="&#x2012;" d="M69 566.5q3 15.5 19 13.5q90 -18 222 -12.5t225 28.5q16 4 20 -12.5t-12 -20.5q-96 -23 -231.5 -29t-231.5 13q-14 4 -11 19.5z" />
<glyph unicode="&#x2013;" horiz-adv-x="1149" d="M69 566.5q6 15.5 40 13.5q189 -18 466.5 -12.5t472.5 28.5q34 4 42.5 -12.5t-25.5 -20.5q-202 -23 -486.5 -29t-486.5 13q-29 4 -23 19.5z" />
<glyph unicode="&#x2014;" horiz-adv-x="2173" d="M70.5 566.5q12.5 15.5 79.5 13.5q378 -18 933 -12.5t946 28.5q67 4 83.5 -12.5t-50.5 -20.5q-403 -23 -972.5 -29t-973.5 13q-58 4 -45.5 19.5z" />
<glyph unicode="&#x2018;" horiz-adv-x="268" d="M27 1188q8 109 84 227q10 14 26.5 17.5t30.5 -6t17 -26t-5 -30.5q-66 -102 -71 -188q-8 -94 71 -129q14 -6 21.5 -21.5t0.5 -31t-22.5 -22.5t-32.5 1q-135 55 -120 209z" />
<glyph unicode="&#x2019;" horiz-adv-x="280" d="M84 949.5q2 17.5 14 27.5q100 88 88 180q-4 29 -21.5 68t-29.5 62.5t-47 84.5q-8 14 -4 30.5t18.5 25t31 4t24.5 -18.5q2 -4 14 -27l16 -26q4 -6 15.5 -27.5t15.5 -29t12.5 -25.5t12.5 -28.5t9 -26t8 -28.5t5 -26q20 -137 -114 -254q-12 -12 -30 -10t-29 14.5t-9 30z" />
<glyph unicode="&#x201c;" horiz-adv-x="679" d="M78 1145q18 72 57 151.5t68 122.5q10 14 26.5 17.5t30.5 -6t17 -26t-5 -30.5q-27 -39 -62.5 -112.5t-51.5 -137.5q-16 -68 0 -92q14 -23 86 -4q16 4 30.5 -4t18.5 -24.5t-4 -31t-25 -18.5q-127 -35 -174 37q-37 53 -12 158zM387 975q-68 88 12 256q18 37 41 76t50.5 79.5 t31.5 49.5q8 14 25.5 17t32 -5t17.5 -25.5t-5 -31.5q-6 -10 -33 -52l-47 -73q-23 -35 -39 -70q-57 -123 -20 -172q4 -4 32 -12q4 0 60 -11q16 -4 25.5 -17t6 -30.5t-16.5 -26.5t-32 -7q-57 12 -63 12q-57 14 -78 43z" />
<glyph unicode="&#x201d;" horiz-adv-x="532" d="M70 1007.5q0 16.5 14 28.5q78 70 81 150t-71 153q-12 12 -12 28.5t12 29t29 12.5t29 -12q98 -98 94 -213t-109 -209q-12 -10 -28.5 -10t-27.5 13t-11 29.5zM360.5 1396.5q1.5 16.5 16 27t31 8t26.5 -16.5q98 -131 113 -237q18 -141 -105 -248q-12 -12 -29.5 -10t-28.5 14 t-9 29.5t14 27.5q90 78 76 176q-10 86 -96 199q-10 14 -8.5 30.5z" />
<glyph unicode="&#x202f;" horiz-adv-x="327" />
<glyph unicode="&#x205f;" horiz-adv-x="409" />
<glyph unicode="&#xe000;" horiz-adv-x="1034" d="M0 0v1034h1034v-1034h-1034z" />
</font>
</defs>
</svg>
